<svg width="154" height="21" viewBox="0 0 154 21" fill="none" xmlns="http://www.w3.org/2000/svg">
<path fill-rule="evenodd" clip-rule="evenodd" d="M148.894 13.1126L149.263 14.3502H149.32L152.455 5.55373H153.737L149.237 17.5807C148.971 18.2788 148.622 18.8818 148.196 19.3705C147.765 19.8655 147.143 20.113 146.318 20.113C146.184 20.113 146.019 20.1004 145.829 20.0686C145.639 20.0432 145.499 20.0115 145.41 19.9798L145.543 19.0214C145.62 19.0341 145.74 19.0531 145.911 19.0658C146.083 19.0785 146.203 19.0849 146.28 19.0849C146.775 19.0849 147.174 18.9072 147.479 18.5518C147.777 18.1963 148.038 17.7457 148.247 17.1872L148.793 15.7846L144.788 5.55373H146.057L148.901 13.1126H148.894ZM137.121 14.9532H143.855V15.9179H135.706V15.0738L141.951 6.53753H135.896V5.55373H143.398V6.40423L137.121 14.9468V14.9532ZM130.032 15.1563C130.794 15.1563 131.46 14.9405 132.044 14.5026C132.622 14.071 132.92 13.4617 132.92 12.6874H133.935L133.954 12.7445C133.986 13.7029 133.605 14.5026 132.799 15.1499C132 15.7909 131.079 16.1146 130.032 16.1146C128.623 16.1146 127.531 15.6323 126.757 14.6612C125.989 13.6965 125.602 12.4526 125.602 10.9294V10.5232C125.602 9.01272 125.989 7.77513 126.764 6.80403C127.531 5.83303 128.623 5.35063 130.019 5.35063C131.155 5.35063 132.101 5.68703 132.856 6.35983C133.618 7.02623 133.98 7.90833 133.961 9.00003L133.942 9.05713H132.92C132.92 8.22573 132.641 7.55933 132.082 7.07063C131.524 6.57553 130.838 6.32803 130.026 6.32803C128.915 6.32803 128.09 6.72793 127.557 7.52123C127.024 8.31453 126.757 9.31732 126.757 10.5232V10.923C126.757 12.1479 127.024 13.1571 127.551 13.9504C128.084 14.7437 128.909 15.1372 130.032 15.1372V15.1563ZM123.019 15.9179H121.883V0.977776H123.019V15.9242V15.9179ZM115.371 6.33443C114.521 6.33443 113.81 6.65803 113.232 7.30543C112.655 7.95283 112.325 8.77153 112.23 9.74253L112.249 9.79333H118.322V9.50773C118.322 8.60653 118.056 7.85123 117.529 7.24193C116.996 6.63903 116.279 6.33443 115.371 6.33443ZM115.517 16.121C114.222 16.121 113.143 15.6386 112.287 14.6866C111.43 13.7283 110.998 12.516 110.998 11.0436V10.5168C110.998 9.03173 111.424 7.80053 112.274 6.82313C113.124 5.84573 114.159 5.35703 115.371 5.35703C116.583 5.35703 117.643 5.75683 118.367 6.56283C119.097 7.36893 119.458 8.44153 119.458 9.78703V10.7644H112.141V11.0436C112.141 12.2114 112.452 13.1888 113.067 13.9758C113.689 14.7564 114.502 15.1563 115.511 15.1563C116.228 15.1563 116.837 15.0547 117.339 14.858C117.84 14.6612 118.278 14.3756 118.627 14.0012L119.116 14.7882C118.729 15.1944 118.234 15.5244 117.637 15.7592C117.04 16.0004 116.33 16.121 115.504 16.121H115.517ZM108.453 2.58353H107.317V0.971436H108.453V2.58353ZM108.453 15.9179H107.317V5.55373H108.453V15.9179ZM98.3366 14.9532H105.077V15.9179H96.9206V15.0738L103.166 6.53753H97.1115V5.55373H104.614V6.40423L98.3366 14.9468V14.9532ZM87.3505 11.0246C87.3505 12.2749 87.5975 13.2713 88.0985 14.0139C88.6005 14.7564 89.3556 15.1245 90.3646 15.1245C91.1006 15.1245 91.7225 14.9532 92.2176 14.6231C92.7126 14.2931 93.1006 13.8298 93.3736 13.2459V8.37173C93.1066 7.77513 92.7385 7.28643 92.2626 6.91193C91.7805 6.53753 91.1586 6.35343 90.3836 6.35343C89.3745 6.35343 88.6196 6.76593 88.1115 7.59103C87.6035 8.41613 87.3505 9.49503 87.3505 10.8151V11.0182V11.0246ZM86.2016 10.8215C86.2016 9.16503 86.5506 7.84493 87.2486 6.84843C87.9466 5.85203 88.9246 5.35703 90.1746 5.35703C90.8976 5.35703 91.5196 5.50933 92.0526 5.82033C92.5866 6.12493 93.0236 6.55653 93.3796 7.12143V0.971436H94.5156V15.9179H93.4995L93.4045 14.4137C93.0625 14.9659 92.6176 15.3848 92.0716 15.683C91.5266 15.975 90.8916 16.121 90.1556 16.121C88.9176 16.121 87.9466 15.6577 87.2486 14.7374C86.5506 13.8108 86.2016 12.5732 86.2016 11.0246V10.8215ZM83.1996 7.67993L84.9066 7.01353V8.05433L83.1996 8.72073V15.9179H82.0566V9.16503L80.3116 9.84412V8.80323L82.0566 8.12413V0.977776H83.1996V7.68623V7.67993ZM75.9836 1.54264H77.3926L77.4236 1.59976L75.0376 4.08763H74.0026L75.9836 1.54264ZM71.1656 10.904C71.1656 12.1035 71.4706 13.1126 72.0736 13.9314C72.6826 14.7501 73.5266 15.1563 74.6126 15.1563C75.6976 15.1563 76.5166 14.7501 77.1256 13.9314C77.7346 13.1126 78.0396 12.1035 78.0396 10.904V10.5867C78.0396 9.40623 77.7346 8.40343 77.1196 7.57833C76.5036 6.75323 75.6656 6.34073 74.5936 6.34073C73.5206 6.34073 72.6766 6.75323 72.0676 7.57833C71.4646 8.40343 71.1596 9.40623 71.1596 10.5867V10.904H71.1656ZM70.0176 10.5867C70.0176 9.05713 70.4366 7.80683 71.2676 6.82943C72.1056 5.85203 73.2156 5.36333 74.5936 5.36333C75.9706 5.36333 77.0876 5.85203 77.9256 6.82943C78.7566 7.80683 79.1756 9.05713 79.1756 10.5867V10.904C79.1756 12.4399 78.7626 13.6902 77.9256 14.6676C77.0936 15.645 75.9896 16.1273 74.6056 16.1273C73.2225 16.1273 72.0986 15.6386 71.2616 14.6676C70.4296 13.6902 70.0106 12.4399 70.0106 10.904V10.5867H70.0176ZM66.9325 10.8278C66.9325 9.50773 66.6726 8.43513 66.1456 7.61013C65.6256 6.77863 64.8506 6.35983 63.8486 6.35983C63.0736 6.35983 62.4516 6.54383 61.9636 6.91193C61.4806 7.28003 61.1196 7.75603 60.8776 8.34633V13.3284C61.1386 13.8996 61.5126 14.3439 62.0146 14.6739C62.5096 14.9976 63.1246 15.1626 63.8676 15.1626C64.8706 15.1626 65.6315 14.7882 66.1525 14.0329C66.6725 13.284 66.9325 12.2812 66.9325 11.0373V10.8342V10.8278ZM68.0816 11.0309C68.0816 12.5859 67.7265 13.8171 67.0275 14.7437C66.3296 15.664 65.3586 16.1273 64.1276 16.1273C63.3976 16.1273 62.7566 15.994 62.2106 15.7148C61.6646 15.4419 61.2206 15.0484 60.8776 14.5343V19.9036H59.7296V5.55373H60.6936L60.8396 7.15943C61.1826 6.58193 61.6336 6.13763 62.1796 5.82663C62.7246 5.50933 63.3656 5.35703 64.1086 5.35703C65.3526 5.35703 66.3296 5.85203 67.0275 6.84843C67.7326 7.84493 68.0816 9.16503 68.0816 10.8215V11.0246V11.0309ZM56.2386 12.5034C56.2386 11.7417 55.9596 11.1261 55.3886 10.6438C54.8166 10.1614 53.8336 9.73623 52.4176 9.36173C50.8886 8.98093 49.7336 8.47953 48.9526 7.87033C48.1656 7.25463 47.7726 6.42963 47.7726 5.38873C47.7726 4.34783 48.2096 3.45303 49.0856 2.78023C49.9676 2.10749 51.0916 1.77112 52.4746 1.77112C53.8586 1.77112 55.0706 2.17096 55.9526 2.97063C56.8356 3.77033 57.2666 4.74133 57.2416 5.89013L57.2096 5.94723H56.1566C56.1566 5.01433 55.8256 4.24633 55.1596 3.64973C54.4996 3.05313 53.6046 2.74853 52.4746 2.74853C51.3456 2.74853 50.4826 2.99603 49.8536 3.49743C49.2256 3.99883 48.9146 4.61443 48.9146 5.35703C48.9146 6.05513 49.2066 6.64543 49.7836 7.11503C50.3676 7.58473 51.3706 7.99722 52.7926 8.35903C54.2906 8.74613 55.4326 9.26023 56.2196 9.91393C57.0006 10.5676 57.3936 11.4244 57.3936 12.4907C57.3936 13.5569 56.9366 14.4899 56.0226 15.1436C55.1156 15.8036 53.9536 16.1273 52.5386 16.1273C51.1236 16.1273 49.9296 15.7782 48.8956 15.0801C47.8546 14.3756 47.3536 13.3602 47.3846 12.021L47.4036 11.9639H48.4576C48.4576 13.0492 48.8636 13.8552 49.6766 14.3756C50.4886 14.9024 51.4406 15.1626 52.5386 15.1626C53.6366 15.1626 54.5376 14.9214 55.2166 14.4327C55.8956 13.9504 56.2386 13.3094 56.2386 12.5034ZM36.018 10.8723H34.6916V15.9242H33.5428V0.977776H34.6916V9.88853H35.9038L39.7496 5.56013H41.0886L41.1076 5.60453L36.9574 10.2757L41.5336 15.8734L41.5016 15.9242H40.1876L36.0054 10.8723H36.018ZM23.6293 5.55373L23.7372 7.36253C24.0672 6.72793 24.5178 6.23283 25.0827 5.88373C25.6475 5.53473 26.3203 5.36333 27.0882 5.36333C28.2116 5.36333 29.0684 5.70603 29.6587 6.39153C30.2489 7.07693 30.5408 8.14953 30.5408 9.60933V15.9242H29.3921V9.62203C29.3921 8.43513 29.17 7.59103 28.7257 7.10233C28.2814 6.60733 27.6468 6.35983 26.8344 6.35983C26.022 6.35983 25.3683 6.57553 24.8669 6.99443C24.3592 7.41963 23.9911 7.98453 23.7689 8.68263V15.9179H22.6202V5.55373H23.6356H23.6293ZM14.8582 15.1055C15.6832 15.1055 16.4131 14.9088 17.0414 14.5279C17.6761 14.1408 18.1331 13.6458 18.4123 13.0492V10.8786H16.1021C15.0613 10.8786 14.2298 11.1007 13.6079 11.5513C12.9859 11.9893 12.6749 12.5478 12.6749 13.2015C12.6749 13.7663 12.8653 14.217 13.2588 14.5724C13.6459 14.9278 14.1791 15.1055 14.8582 15.1055ZM18.6281 15.9179C18.5519 15.5688 18.4948 15.2642 18.4631 15.0103C18.4313 14.7564 18.4123 14.4962 18.4123 14.236C18.0315 14.7755 17.5174 15.2261 16.8828 15.5878C16.2417 15.9433 15.5246 16.121 14.7249 16.121C13.7158 16.121 12.9351 15.8544 12.3703 15.3213C11.8117 14.7818 11.5325 14.0646 11.5325 13.1634C11.5325 12.2051 11.945 11.4371 12.7701 10.8659C13.5952 10.2884 14.7122 10.0028 16.1211 10.0028H18.406V8.72073C18.406 7.98453 18.1711 7.40063 17.6951 6.97543C17.2191 6.55653 16.5527 6.34073 15.6959 6.34073C14.8962 6.34073 14.2362 6.54383 13.7094 6.94363C13.1826 7.34353 12.9224 7.83853 12.9224 8.42243L11.8689 8.40973L11.8498 8.35263C11.8181 7.57833 12.1672 6.88653 12.9097 6.27723C13.6586 5.66163 14.5979 5.36333 15.753 5.36333C16.9081 5.36333 17.8157 5.65533 18.5139 6.23923C19.2056 6.81673 19.5547 7.65453 19.5547 8.73983V13.8362C19.5547 14.2043 19.5738 14.5597 19.6182 14.9024C19.6626 15.2515 19.7324 15.5878 19.8213 15.9306H18.6281V15.9179ZM1.35866 8.22573H4.57015C5.57925 8.22573 6.35986 8.00353 6.91206 7.55933C7.46426 7.11503 7.73715 6.46133 7.73715 5.59813C7.73715 4.73503 7.44515 4.05593 6.86125 3.61163C6.27105 3.16743 5.41426 2.94523 4.29086 2.94523H1.35866V8.22573ZM1.35866 9.19672V14.9532H5.03976C6.06796 14.9532 6.88036 14.6993 7.46426 14.1916C8.05446 13.6838 8.34635 12.973 8.34635 12.0591C8.34635 11.2213 8.07985 10.5359 7.54675 9.99643C7.01355 9.46333 6.23925 9.19042 5.22385 9.19042H1.35866V9.19672ZM0.222656 15.9242V1.97421H4.29086C5.73796 1.97421 6.86765 2.27883 7.67365 2.88813C8.47965 3.49743 8.88586 4.41773 8.88586 5.64263C8.88586 6.35983 8.68276 6.97543 8.27656 7.50853C7.87036 8.04163 7.31826 8.40973 6.62646 8.61283C7.47696 8.76513 8.16236 9.16503 8.69546 9.81243C9.22856 10.4597 9.49516 11.1959 9.49516 12.04C9.49516 13.2903 9.08896 14.2487 8.28296 14.9151C7.47696 15.5878 6.39166 15.9242 5.03976 15.9242H0.222656Z" fill="#1B1918"/>
</svg>

