<svg width="50" height="" viewBox="0 0 202 229" fill="none" xmlns="http://www.w3.org/2000/svg">
<path fill-rule="evenodd" clip-rule="evenodd" d="M3.62023 19.5158C1.95356 32.1825 -1.37986 62.8158 0.620136 78.0158C26.1201 80.5158 151.62 116.016 189.12 139.516L189.425 138.719L189.425 138.718C195.699 122.311 198.136 115.937 199.12 111.016C199.52 108.216 198.287 106.849 197.62 106.516C174.954 92.8491 112.72 63.2158 45.1202 54.0158C45.1202 38.0158 46.6202 30.0158 47.1202 28.5158C50.1202 28.0158 113.12 21.5158 156.12 28.5158C157.12 31.1825 159.52 40.3158 161.12 55.5158C165.62 57.0158 198.62 73.0158 201.62 75.5158C201.62 70.5158 200.62 32.5158 199.12 23.5158C197.62 16.0158 193.62 14.0158 189.12 12.5158C189.021 12.4826 188.907 12.4445 188.78 12.4018C183.149 10.5127 150.403 -0.473149 96.6202 0.0157878C41.6202 0.515788 12.1202 12.0158 8.6202 14.0158C5.8202 15.6158 4.12022 18.3491 3.62023 19.5158ZM175.62 164.516C166.787 178.182 140.02 210.016 103.62 228.016C100.358 226.069 97.0209 224.159 93.631 222.22C62.2048 204.241 26.2834 183.691 4.62014 106.516C14.1886 109.865 25.2448 113.328 34.3941 116.194C44.3688 119.319 52.077 121.733 53.1201 122.516C53.1201 126.516 72.6201 162.016 101.62 179.016C118.02 167.416 131.12 154.182 135.62 149.016L175.62 164.516Z" fill="#D9D9D9"/>
</svg>
