<svg width="817" height="72" viewBox="0 0 817 72" fill="none" xmlns="http://www.w3.org/2000/svg">
<rect width="202" height="72" rx="16" fill="url(#paint0_linear_39_1182)"/>
<path d="M42.0455 35.6818C42.0455 36.9356 41.8106 38.0095 41.3409 38.9034C40.875 39.7936 40.2386 40.4754 39.4318 40.9489C38.6288 41.4223 37.7178 41.6591 36.6989 41.6591C35.6799 41.6591 34.767 41.4223 33.9602 40.9489C33.1572 40.4716 32.5208 39.7879 32.0511 38.8977C31.5852 38.0038 31.3523 36.9318 31.3523 35.6818C31.3523 34.428 31.5852 33.3561 32.0511 32.4659C32.5208 31.572 33.1572 30.8883 33.9602 30.4148C34.767 29.9413 35.6799 29.7045 36.6989 29.7045C37.7178 29.7045 38.6288 29.9413 39.4318 30.4148C40.2386 30.8883 40.875 31.572 41.3409 32.4659C41.8106 33.3561 42.0455 34.428 42.0455 35.6818ZM39.9261 35.6818C39.9261 34.7992 39.7879 34.0549 39.5114 33.4489C39.2386 32.839 38.8598 32.3788 38.375 32.0682C37.8902 31.7538 37.3314 31.5966 36.6989 31.5966C36.0663 31.5966 35.5076 31.7538 35.0227 32.0682C34.5379 32.3788 34.1572 32.839 33.8807 33.4489C33.608 34.0549 33.4716 34.7992 33.4716 35.6818C33.4716 36.5644 33.608 37.3106 33.8807 37.9205C34.1572 38.5265 34.5379 38.9867 35.0227 39.3011C35.5076 39.6117 36.0663 39.767 36.6989 39.767C37.3314 39.767 37.8902 39.6117 38.375 39.3011C38.8598 38.9867 39.2386 38.5265 39.5114 37.9205C39.7879 37.3106 39.9261 36.5644 39.9261 35.6818ZM47.1861 41.6534C46.5005 41.6534 45.8868 41.4773 45.3452 41.125C44.8035 40.7727 44.3755 40.2614 44.0611 39.5909C43.7467 38.9205 43.5895 38.1061 43.5895 37.1477C43.5895 36.178 43.7486 35.3598 44.0668 34.6932C44.3887 34.0227 44.8224 33.517 45.3679 33.1761C45.9134 32.8314 46.5213 32.6591 47.1918 32.6591C47.7031 32.6591 48.1236 32.7462 48.4531 32.9205C48.7827 33.0909 49.044 33.2973 49.2372 33.5398C49.4304 33.7784 49.58 34.0038 49.6861 34.2159H49.7713V29.8636H51.8338V41.5H49.8111V40.125H49.6861C49.58 40.3371 49.4266 40.5625 49.2259 40.8011C49.0251 41.036 48.7599 41.2367 48.4304 41.4034C48.1009 41.5701 47.6861 41.6534 47.1861 41.6534ZM47.7599 39.9659C48.1955 39.9659 48.5668 39.8485 48.8736 39.6136C49.1804 39.375 49.4134 39.0436 49.5724 38.6193C49.7315 38.1951 49.8111 37.7008 49.8111 37.1364C49.8111 36.572 49.7315 36.0814 49.5724 35.6648C49.4171 35.2481 49.1861 34.9242 48.8793 34.6932C48.5762 34.4621 48.2031 34.3466 47.7599 34.3466C47.3016 34.3466 46.919 34.4659 46.6122 34.7045C46.3054 34.9432 46.0743 35.2727 45.919 35.6932C45.7637 36.1136 45.6861 36.5947 45.6861 37.1364C45.6861 37.6818 45.7637 38.1686 45.919 38.5966C46.0781 39.0208 46.3111 39.3561 46.6179 39.6023C46.9285 39.8447 47.3092 39.9659 47.7599 39.9659ZM60.0511 36.3864V41.5H57.9943V32.7727H59.9602V34.2557H60.0625C60.2633 33.767 60.5833 33.3788 61.0227 33.0909C61.4659 32.803 62.0133 32.6591 62.6648 32.6591C63.267 32.6591 63.7917 32.7879 64.2386 33.0455C64.6894 33.303 65.0379 33.6761 65.2841 34.1648C65.5341 34.6534 65.6572 35.2462 65.6534 35.9432V41.5H63.5966V36.2614C63.5966 35.678 63.4451 35.2216 63.142 34.892C62.8428 34.5625 62.428 34.3977 61.8977 34.3977C61.5379 34.3977 61.2178 34.4773 60.9375 34.6364C60.661 34.7917 60.4432 35.017 60.2841 35.3125C60.1288 35.608 60.0511 35.9659 60.0511 36.3864ZM67.7443 41.5V32.7727H69.8011V41.5H67.7443ZM68.7784 31.5341C68.4527 31.5341 68.1723 31.4261 67.9375 31.2102C67.7027 30.9905 67.5852 30.7273 67.5852 30.4205C67.5852 30.1098 67.7027 29.8466 67.9375 29.6307C68.1723 29.411 68.4527 29.3011 68.7784 29.3011C69.108 29.3011 69.3883 29.411 69.6193 29.6307C69.8542 29.8466 69.9716 30.1098 69.9716 30.4205C69.9716 30.7273 69.8542 30.9905 69.6193 31.2102C69.3883 31.4261 69.108 31.5341 68.7784 31.5341ZM75.7798 41.6705C74.9048 41.6705 74.1491 41.4886 73.5128 41.125C72.8802 40.7576 72.3935 40.2386 72.0526 39.5682C71.7116 38.8939 71.5412 38.1004 71.5412 37.1875C71.5412 36.2898 71.7116 35.5019 72.0526 34.8239C72.3973 34.142 72.8783 33.6117 73.4957 33.233C74.1132 32.8504 74.8385 32.6591 75.6719 32.6591C76.2098 32.6591 76.7173 32.7462 77.1946 32.9205C77.6757 33.0909 78.0999 33.3561 78.4673 33.7159C78.8385 34.0758 79.1302 34.5341 79.3423 35.0909C79.5545 35.6439 79.6605 36.303 79.6605 37.0682V37.6989H72.5071V36.3125H77.6889C77.6851 35.9186 77.5999 35.5682 77.4332 35.2614C77.2666 34.9508 77.0336 34.7064 76.7344 34.5284C76.4389 34.3504 76.0942 34.2614 75.7003 34.2614C75.2798 34.2614 74.9105 34.3636 74.5923 34.5682C74.2741 34.7689 74.026 35.0341 73.848 35.3636C73.6738 35.6894 73.5848 36.0473 73.581 36.4375V37.6477C73.581 38.1553 73.6738 38.5909 73.8594 38.9545C74.045 39.3144 74.3045 39.5909 74.6378 39.7841C74.9711 39.9735 75.3613 40.0682 75.8082 40.0682C76.1075 40.0682 76.3783 40.0265 76.6207 39.9432C76.8632 39.8561 77.0734 39.7292 77.2514 39.5625C77.4295 39.3958 77.5639 39.1894 77.6548 38.9432L79.5753 39.1591C79.4541 39.6667 79.223 40.1098 78.8821 40.4886C78.545 40.8636 78.1132 41.1553 77.5866 41.3636C77.0601 41.5682 76.4579 41.6705 75.7798 41.6705ZM81.4006 41.5V32.7727H83.3949V34.2273H83.4858C83.6449 33.7235 83.9176 33.3352 84.304 33.0625C84.6941 32.786 85.1392 32.6477 85.6392 32.6477C85.7528 32.6477 85.8797 32.6534 86.0199 32.6648C86.1638 32.6723 86.2831 32.6856 86.3778 32.7045V34.5966C86.2907 34.5663 86.1525 34.5398 85.9631 34.517C85.7775 34.4905 85.5975 34.4773 85.4233 34.4773C85.0483 34.4773 84.7112 34.5587 84.4119 34.7216C84.1165 34.8807 83.8835 35.1023 83.7131 35.3864C83.5426 35.6705 83.4574 35.9981 83.4574 36.3693V41.5H81.4006ZM93.3068 37.8295V32.7727H95.3636V41.5H93.3693V39.9489H93.2784C93.0814 40.4375 92.7576 40.8371 92.3068 41.1477C91.8598 41.4583 91.3087 41.6136 90.6534 41.6136C90.0814 41.6136 89.5758 41.4867 89.1364 41.233C88.7008 40.9754 88.3598 40.6023 88.1136 40.1136C87.8674 39.6212 87.7443 39.0265 87.7443 38.3295V32.7727H89.8011V38.0114C89.8011 38.5644 89.9527 39.0038 90.2557 39.3295C90.5587 39.6553 90.9564 39.8182 91.4489 39.8182C91.7519 39.8182 92.0455 39.7443 92.3295 39.5966C92.6136 39.4489 92.8466 39.2292 93.0284 38.9375C93.214 38.642 93.3068 38.2727 93.3068 37.8295ZM101.286 41.6705C100.414 41.6705 99.6662 41.4792 99.0412 41.0966C98.42 40.714 97.9408 40.1856 97.6037 39.5114C97.2704 38.8333 97.1037 38.053 97.1037 37.1705C97.1037 36.2841 97.2741 35.5019 97.6151 34.8239C97.956 34.142 98.437 33.6117 99.0582 33.233C99.6832 32.8504 100.422 32.6591 101.274 32.6591C101.982 32.6591 102.609 32.7898 103.155 33.0511C103.704 33.3087 104.142 33.6742 104.467 34.1477C104.793 34.6174 104.979 35.1667 105.024 35.7955H103.058C102.979 35.375 102.789 35.0246 102.49 34.7443C102.195 34.4602 101.799 34.3182 101.303 34.3182C100.882 34.3182 100.513 34.4318 100.195 34.6591C99.8764 34.8826 99.6283 35.2045 99.4503 35.625C99.276 36.0455 99.1889 36.5492 99.1889 37.1364C99.1889 37.7311 99.276 38.2424 99.4503 38.6705C99.6245 39.0947 99.8688 39.4223 100.183 39.6534C100.501 39.8807 100.875 39.9943 101.303 39.9943C101.606 39.9943 101.876 39.9375 102.115 39.8239C102.357 39.7064 102.56 39.5379 102.723 39.3182C102.886 39.0985 102.998 38.8314 103.058 38.517H105.024C104.975 39.1345 104.793 39.6818 104.479 40.1591C104.164 40.6326 103.736 41.0038 103.195 41.2727C102.653 41.5379 102.017 41.6705 101.286 41.6705ZM108.77 36.3864V41.5H106.713V29.8636H108.724V34.2557H108.827C109.031 33.7633 109.348 33.375 109.776 33.0909C110.207 32.803 110.757 32.6591 111.423 32.6591C112.029 32.6591 112.558 32.786 113.009 33.0398C113.459 33.2936 113.808 33.6648 114.054 34.1534C114.304 34.642 114.429 35.2386 114.429 35.9432V41.5H112.372V36.2614C112.372 35.6742 112.221 35.2178 111.918 34.892C111.618 34.5625 111.198 34.3977 110.656 34.3977C110.293 34.3977 109.967 34.4773 109.679 34.6364C109.395 34.7917 109.171 35.017 109.009 35.3125C108.849 35.608 108.77 35.9659 108.77 36.3864ZM120.332 41.6705C119.48 41.6705 118.741 41.483 118.116 41.108C117.491 40.733 117.007 40.2083 116.662 39.5341C116.321 38.8598 116.151 38.072 116.151 37.1705C116.151 36.2689 116.321 35.4792 116.662 34.8011C117.007 34.1231 117.491 33.5966 118.116 33.2216C118.741 32.8466 119.48 32.6591 120.332 32.6591C121.185 32.6591 121.923 32.8466 122.548 33.2216C123.173 33.5966 123.656 34.1231 123.997 34.8011C124.342 35.4792 124.514 36.2689 124.514 37.1705C124.514 38.072 124.342 38.8598 123.997 39.5341C123.656 40.2083 123.173 40.733 122.548 41.108C121.923 41.483 121.185 41.6705 120.332 41.6705ZM120.344 40.0227C120.806 40.0227 121.192 39.8958 121.503 39.642C121.813 39.3845 122.045 39.0398 122.196 38.608C122.351 38.1761 122.429 37.6951 122.429 37.1648C122.429 36.6307 122.351 36.1477 122.196 35.7159C122.045 35.2803 121.813 34.9337 121.503 34.6761C121.192 34.4186 120.806 34.2898 120.344 34.2898C119.87 34.2898 119.476 34.4186 119.162 34.6761C118.851 34.9337 118.618 35.2803 118.463 35.7159C118.312 36.1477 118.236 36.6307 118.236 37.1648C118.236 37.6951 118.312 38.1761 118.463 38.608C118.618 39.0398 118.851 39.3845 119.162 39.642C119.476 39.8958 119.87 40.0227 120.344 40.0227ZM126.26 41.5V32.7727H128.226V34.2557H128.328C128.51 33.7557 128.811 33.3655 129.232 33.0852C129.652 32.8011 130.154 32.6591 130.737 32.6591C131.328 32.6591 131.826 32.803 132.232 33.0909C132.641 33.375 132.929 33.7633 133.095 34.2557H133.186C133.379 33.7708 133.705 33.3845 134.163 33.0966C134.625 32.8049 135.173 32.6591 135.805 32.6591C136.608 32.6591 137.264 32.9129 137.771 33.4205C138.279 33.928 138.533 34.6686 138.533 35.642V41.5H136.47V35.9602C136.47 35.4186 136.326 35.0227 136.038 34.7727C135.75 34.5189 135.398 34.392 134.982 34.392C134.485 34.392 134.097 34.5473 133.817 34.858C133.54 35.1648 133.402 35.5644 133.402 36.0568V41.5H131.385V35.875C131.385 35.4242 131.249 35.0644 130.976 34.7955C130.707 34.5265 130.355 34.392 129.919 34.392C129.624 34.392 129.355 34.4678 129.112 34.6193C128.87 34.767 128.677 34.9773 128.533 35.25C128.389 35.5189 128.317 35.8333 128.317 36.1932V41.5H126.26ZM144.426 41.6705C143.574 41.6705 142.835 41.483 142.21 41.108C141.585 40.733 141.1 40.2083 140.756 39.5341C140.415 38.8598 140.244 38.072 140.244 37.1705C140.244 36.2689 140.415 35.4792 140.756 34.8011C141.1 34.1231 141.585 33.5966 142.21 33.2216C142.835 32.8466 143.574 32.6591 144.426 32.6591C145.278 32.6591 146.017 32.8466 146.642 33.2216C147.267 33.5966 147.75 34.1231 148.091 34.8011C148.436 35.4792 148.608 36.2689 148.608 37.1705C148.608 38.072 148.436 38.8598 148.091 39.5341C147.75 40.2083 147.267 40.733 146.642 41.108C146.017 41.483 145.278 41.6705 144.426 41.6705ZM144.438 40.0227C144.9 40.0227 145.286 39.8958 145.597 39.642C145.907 39.3845 146.138 39.0398 146.29 38.608C146.445 38.1761 146.523 37.6951 146.523 37.1648C146.523 36.6307 146.445 36.1477 146.29 35.7159C146.138 35.2803 145.907 34.9337 145.597 34.6761C145.286 34.4186 144.9 34.2898 144.438 34.2898C143.964 34.2898 143.57 34.4186 143.256 34.6761C142.945 34.9337 142.712 35.2803 142.557 35.7159C142.405 36.1477 142.33 36.6307 142.33 37.1648C142.33 37.6951 142.405 38.1761 142.557 38.608C142.712 39.0398 142.945 39.3845 143.256 39.642C143.57 39.8958 143.964 40.0227 144.438 40.0227ZM157.251 35.0795L155.376 35.2841C155.323 35.0947 155.231 34.9167 155.098 34.75C154.969 34.5833 154.795 34.4489 154.575 34.3466C154.356 34.2443 154.087 34.1932 153.768 34.1932C153.34 34.1932 152.981 34.286 152.689 34.4716C152.401 34.6572 152.259 34.8977 152.263 35.1932C152.259 35.447 152.352 35.6534 152.541 35.8125C152.734 35.9716 153.053 36.1023 153.496 36.2045L154.984 36.5227C155.81 36.7008 156.424 36.983 156.825 37.3693C157.231 37.7557 157.435 38.2614 157.439 38.8864C157.435 39.4356 157.274 39.9205 156.956 40.3409C156.642 40.7576 156.204 41.0833 155.643 41.3182C155.083 41.553 154.439 41.6705 153.712 41.6705C152.643 41.6705 151.784 41.447 151.132 41C150.481 40.5492 150.092 39.9223 149.967 39.1193L151.973 38.9261C152.064 39.3201 152.257 39.6174 152.553 39.8182C152.848 40.0189 153.232 40.1193 153.706 40.1193C154.195 40.1193 154.587 40.0189 154.882 39.8182C155.181 39.6174 155.331 39.3693 155.331 39.0739C155.331 38.8239 155.234 38.6174 155.041 38.4545C154.852 38.2917 154.556 38.1667 154.155 38.0795L152.666 37.767C151.829 37.5928 151.21 37.2992 150.808 36.8864C150.407 36.4697 150.208 35.9432 150.212 35.3068C150.208 34.7689 150.354 34.303 150.649 33.9091C150.948 33.5114 151.363 33.2045 151.893 32.9886C152.428 32.7689 153.043 32.6591 153.74 32.6591C154.763 32.6591 155.568 32.8769 156.155 33.3125C156.746 33.7481 157.111 34.3371 157.251 35.0795ZM152.99 31.625L154.263 29.0284H156.274L154.53 31.625H152.99ZM162.942 41.6705C162.071 41.6705 161.322 41.4792 160.697 41.0966C160.076 40.714 159.597 40.1856 159.26 39.5114C158.927 38.8333 158.76 38.053 158.76 37.1705C158.76 36.2841 158.93 35.5019 159.271 34.8239C159.612 34.142 160.093 33.6117 160.714 33.233C161.339 32.8504 162.078 32.6591 162.93 32.6591C163.639 32.6591 164.266 32.7898 164.811 33.0511C165.36 33.3087 165.798 33.6742 166.124 34.1477C166.449 34.6174 166.635 35.1667 166.68 35.7955H164.714C164.635 35.375 164.446 35.0246 164.146 34.7443C163.851 34.4602 163.455 34.3182 162.959 34.3182C162.538 34.3182 162.169 34.4318 161.851 34.6591C161.533 34.8826 161.285 35.2045 161.107 35.625C160.932 36.0455 160.845 36.5492 160.845 37.1364C160.845 37.7311 160.932 38.2424 161.107 38.6705C161.281 39.0947 161.525 39.4223 161.839 39.6534C162.158 39.8807 162.531 39.9943 162.959 39.9943C163.262 39.9943 163.533 39.9375 163.771 39.8239C164.014 39.7064 164.216 39.5379 164.379 39.3182C164.542 39.0985 164.654 38.8314 164.714 38.517H166.68C166.631 39.1345 166.449 39.6818 166.135 40.1591C165.821 40.6326 165.393 41.0038 164.851 41.2727C164.309 41.5379 163.673 41.6705 162.942 41.6705ZM168.369 41.5V32.7727H170.426V41.5H168.369ZM169.403 31.5341C169.078 31.5341 168.797 31.4261 168.562 31.2102C168.328 30.9905 168.21 30.7273 168.21 30.4205C168.21 30.1098 168.328 29.8466 168.562 29.6307C168.797 29.411 169.078 29.3011 169.403 29.3011C169.733 29.3011 170.013 29.411 170.244 29.6307C170.479 29.8466 170.597 30.1098 170.597 30.4205C170.597 30.7273 170.479 30.9905 170.244 31.2102C170.013 31.4261 169.733 31.5341 169.403 31.5341Z" fill="white"/>
<rect x="205" width="202" height="72" rx="16" fill="url(#paint1_linear_39_1182)"/>
<path d="M247.648 41.5V29.8636H249.756V35.2102H249.898L254.438 29.8636H257.011L252.511 35.0852L257.051 41.5H254.517L251.045 36.5114L249.756 38.0341V41.5H247.648ZM261.551 41.6705C260.699 41.6705 259.96 41.483 259.335 41.108C258.71 40.733 258.225 40.2083 257.881 39.5341C257.54 38.8598 257.369 38.072 257.369 37.1705C257.369 36.2689 257.54 35.4792 257.881 34.8011C258.225 34.1231 258.71 33.5966 259.335 33.2216C259.96 32.8466 260.699 32.6591 261.551 32.6591C262.403 32.6591 263.142 32.8466 263.767 33.2216C264.392 33.5966 264.875 34.1231 265.216 34.8011C265.561 35.4792 265.733 36.2689 265.733 37.1705C265.733 38.072 265.561 38.8598 265.216 39.5341C264.875 40.2083 264.392 40.733 263.767 41.108C263.142 41.483 262.403 41.6705 261.551 41.6705ZM261.562 40.0227C262.025 40.0227 262.411 39.8958 262.722 39.642C263.032 39.3845 263.263 39.0398 263.415 38.608C263.57 38.1761 263.648 37.6951 263.648 37.1648C263.648 36.6307 263.57 36.1477 263.415 35.7159C263.263 35.2803 263.032 34.9337 262.722 34.6761C262.411 34.4186 262.025 34.2898 261.562 34.2898C261.089 34.2898 260.695 34.4186 260.381 34.6761C260.07 34.9337 259.837 35.2803 259.682 35.7159C259.53 36.1477 259.455 36.6307 259.455 37.1648C259.455 37.6951 259.53 38.1761 259.682 38.608C259.837 39.0398 260.07 39.3845 260.381 39.642C260.695 39.8958 261.089 40.0227 261.562 40.0227ZM267.479 41.5V32.7727H269.445V34.2557H269.547C269.729 33.7557 270.03 33.3655 270.45 33.0852C270.871 32.8011 271.373 32.6591 271.956 32.6591C272.547 32.6591 273.045 32.803 273.45 33.0909C273.859 33.375 274.147 33.7633 274.314 34.2557H274.405C274.598 33.7708 274.924 33.3845 275.382 33.0966C275.844 32.8049 276.392 32.6591 277.024 32.6591C277.827 32.6591 278.482 32.9129 278.99 33.4205C279.498 33.928 279.751 34.6686 279.751 35.642V41.5H277.689V35.9602C277.689 35.4186 277.545 35.0227 277.257 34.7727C276.969 34.5189 276.617 34.392 276.2 34.392C275.704 34.392 275.316 34.5473 275.036 34.858C274.759 35.1648 274.621 35.5644 274.621 36.0568V41.5H272.604V35.875C272.604 35.4242 272.467 35.0644 272.195 34.7955C271.926 34.5265 271.573 34.392 271.138 34.392C270.842 34.392 270.573 34.4678 270.331 34.6193C270.089 34.767 269.895 34.9773 269.751 35.25C269.607 35.5189 269.536 35.8333 269.536 36.1932V41.5H267.479ZM287.401 37.8295V32.7727H289.457V41.5H287.463V39.9489H287.372C287.175 40.4375 286.851 40.8371 286.401 41.1477C285.954 41.4583 285.402 41.6136 284.747 41.6136C284.175 41.6136 283.67 41.4867 283.23 41.233C282.795 40.9754 282.454 40.6023 282.207 40.1136C281.961 39.6212 281.838 39.0265 281.838 38.3295V32.7727H283.895V38.0114C283.895 38.5644 284.046 39.0038 284.349 39.3295C284.652 39.6553 285.05 39.8182 285.543 39.8182C285.846 39.8182 286.139 39.7443 286.423 39.5966C286.707 39.4489 286.94 39.2292 287.122 38.9375C287.308 38.642 287.401 38.2727 287.401 37.8295ZM293.629 36.3864V41.5H291.572V32.7727H293.538V34.2557H293.641C293.841 33.767 294.161 33.3788 294.601 33.0909C295.044 32.803 295.591 32.6591 296.243 32.6591C296.845 32.6591 297.37 32.7879 297.817 33.0455C298.268 33.303 298.616 33.6761 298.862 34.1648C299.112 34.6534 299.235 35.2462 299.232 35.9432V41.5H297.175V36.2614C297.175 35.678 297.023 35.2216 296.72 34.892C296.421 34.5625 296.006 34.3977 295.476 34.3977C295.116 34.3977 294.796 34.4773 294.516 34.6364C294.239 34.7917 294.021 35.017 293.862 35.3125C293.707 35.608 293.629 35.9659 293.629 36.3864ZM301.322 41.5V32.7727H303.379V41.5H301.322ZM302.357 31.5341C302.031 31.5341 301.75 31.4261 301.516 31.2102C301.281 30.9905 301.163 30.7273 301.163 30.4205C301.163 30.1098 301.281 29.8466 301.516 29.6307C301.75 29.411 302.031 29.3011 302.357 29.3011C302.686 29.3011 302.966 29.411 303.197 29.6307C303.432 29.8466 303.55 30.1098 303.55 30.4205C303.55 30.7273 303.432 30.9905 303.197 31.2102C302.966 31.4261 302.686 31.5341 302.357 31.5341ZM307.369 38.7614L307.364 36.2784H307.693L310.83 32.7727H313.233L309.375 37.0682H308.949L307.369 38.7614ZM305.494 41.5V29.8636H307.551V41.5H305.494ZM310.972 41.5L308.131 37.5284L309.517 36.0795L313.432 41.5H310.972ZM317.115 41.6761C316.562 41.6761 316.064 41.5777 315.621 41.3807C315.181 41.1799 314.833 40.8845 314.575 40.4943C314.321 40.1042 314.195 39.6231 314.195 39.0511C314.195 38.5587 314.286 38.1515 314.467 37.8295C314.649 37.5076 314.897 37.25 315.212 37.0568C315.526 36.8636 315.88 36.7178 316.274 36.6193C316.672 36.517 317.083 36.4432 317.507 36.3977C318.018 36.3447 318.433 36.2973 318.751 36.2557C319.07 36.2102 319.301 36.142 319.445 36.0511C319.592 35.9564 319.666 35.8106 319.666 35.6136V35.5795C319.666 35.1515 319.539 34.8201 319.286 34.5852C319.032 34.3504 318.666 34.233 318.189 34.233C317.685 34.233 317.286 34.3428 316.99 34.5625C316.698 34.7822 316.501 35.0417 316.399 35.3409L314.479 35.0682C314.63 34.5379 314.88 34.0947 315.229 33.7386C315.577 33.3788 316.003 33.1098 316.507 32.9318C317.011 32.75 317.568 32.6591 318.178 32.6591C318.598 32.6591 319.017 32.7083 319.433 32.8068C319.85 32.9053 320.231 33.0682 320.575 33.2955C320.92 33.5189 321.196 33.8239 321.405 34.2102C321.617 34.5966 321.723 35.0795 321.723 35.6591V41.5H319.746V40.3011H319.678C319.553 40.5436 319.376 40.7708 319.149 40.983C318.926 41.1913 318.643 41.3598 318.303 41.4886C317.965 41.6136 317.57 41.6761 317.115 41.6761ZM317.649 40.1648C318.062 40.1648 318.42 40.0833 318.723 39.9205C319.026 39.7538 319.259 39.5341 319.422 39.2614C319.589 38.9886 319.672 38.6913 319.672 38.3693V37.3409C319.607 37.3939 319.498 37.4432 319.342 37.4886C319.191 37.5341 319.02 37.5739 318.831 37.608C318.642 37.642 318.454 37.6723 318.268 37.6989C318.083 37.7254 317.922 37.7481 317.786 37.767C317.479 37.8087 317.204 37.8769 316.962 37.9716C316.719 38.0663 316.528 38.1989 316.388 38.3693C316.248 38.536 316.178 38.7519 316.178 39.017C316.178 39.3958 316.316 39.6818 316.592 39.875C316.869 40.0682 317.221 40.1648 317.649 40.1648ZM327.598 41.6705C326.727 41.6705 325.979 41.4792 325.354 41.0966C324.732 40.714 324.253 40.1856 323.916 39.5114C323.583 38.8333 323.416 38.053 323.416 37.1705C323.416 36.2841 323.587 35.5019 323.928 34.8239C324.268 34.142 324.75 33.6117 325.371 33.233C325.996 32.8504 326.734 32.6591 327.587 32.6591C328.295 32.6591 328.922 32.7898 329.467 33.0511C330.017 33.3087 330.454 33.6742 330.78 34.1477C331.106 34.6174 331.291 35.1667 331.337 35.7955H329.371C329.291 35.375 329.102 35.0246 328.803 34.7443C328.507 34.4602 328.111 34.3182 327.615 34.3182C327.195 34.3182 326.825 34.4318 326.507 34.6591C326.189 34.8826 325.941 35.2045 325.763 35.625C325.589 36.0455 325.501 36.5492 325.501 37.1364C325.501 37.7311 325.589 38.2424 325.763 38.6705C325.937 39.0947 326.181 39.4223 326.496 39.6534C326.814 39.8807 327.187 39.9943 327.615 39.9943C327.918 39.9943 328.189 39.9375 328.428 39.8239C328.67 39.7064 328.873 39.5379 329.036 39.3182C329.198 39.0985 329.31 38.8314 329.371 38.517H331.337C331.287 39.1345 331.106 39.6818 330.791 40.1591C330.477 40.6326 330.049 41.0038 329.507 41.2727C328.965 41.5379 328.329 41.6705 327.598 41.6705ZM334.304 44.7727C334.024 44.7727 333.764 44.75 333.526 44.7045C333.291 44.6629 333.103 44.6136 332.963 44.5568L333.44 42.9545C333.74 43.0417 334.007 43.0833 334.241 43.0795C334.476 43.0758 334.683 43.0019 334.861 42.858C335.043 42.7178 335.196 42.483 335.321 42.1534L335.497 41.6818L332.332 32.7727H334.514L336.526 39.3636H336.616L338.634 32.7727H340.821L337.327 42.5568C337.164 43.0189 336.948 43.4148 336.679 43.7443C336.41 44.0777 336.08 44.3314 335.69 44.5057C335.304 44.6837 334.842 44.7727 334.304 44.7727ZM342.244 32.7727H344.301V42C344.301 42.6288 344.182 43.1477 343.943 43.5568C343.705 43.9659 343.36 44.2708 342.909 44.4716C342.458 44.6723 341.911 44.7727 341.267 44.7727C341.191 44.7727 341.121 44.7708 341.057 44.767C340.992 44.767 340.922 44.7652 340.847 44.7614V43.0852C340.903 43.089 340.955 43.0909 341 43.0909C341.045 43.0947 341.093 43.0966 341.142 43.0966C341.536 43.0966 341.818 43 341.989 42.8068C342.159 42.6174 342.244 42.339 342.244 41.9716V32.7727ZM343.267 31.5341C342.938 31.5341 342.655 31.4261 342.42 31.2102C342.189 30.9905 342.074 30.7273 342.074 30.4205C342.074 30.1098 342.189 29.8466 342.42 29.6307C342.655 29.411 342.938 29.3011 343.267 29.3011C343.593 29.3011 343.871 29.411 344.102 29.6307C344.337 29.8466 344.455 30.1098 344.455 30.4205C344.455 30.7273 344.337 30.9905 344.102 31.2102C343.871 31.4261 343.593 31.5341 343.267 31.5341ZM348.473 36.3864V41.5H346.416V32.7727H348.382V34.2557H348.484C348.685 33.767 349.005 33.3788 349.445 33.0909C349.888 32.803 350.435 32.6591 351.087 32.6591C351.689 32.6591 352.214 32.7879 352.661 33.0455C353.111 33.303 353.46 33.6761 353.706 34.1648C353.956 34.6534 354.079 35.2462 354.075 35.9432V41.5H352.018V36.2614C352.018 35.678 351.867 35.2216 351.564 34.892C351.265 34.5625 350.85 34.3977 350.32 34.3977C349.96 34.3977 349.64 34.4773 349.359 34.6364C349.083 34.7917 348.865 35.017 348.706 35.3125C348.551 35.608 348.473 35.9659 348.473 36.3864ZM360.03 41.6705C359.155 41.6705 358.399 41.4886 357.763 41.125C357.13 40.7576 356.643 40.2386 356.303 39.5682C355.962 38.8939 355.791 38.1004 355.791 37.1875C355.791 36.2898 355.962 35.5019 356.303 34.8239C356.647 34.142 357.128 33.6117 357.746 33.233C358.363 32.8504 359.089 32.6591 359.922 32.6591C360.46 32.6591 360.967 32.7462 361.445 32.9205C361.926 33.0909 362.35 33.3561 362.717 33.7159C363.089 34.0758 363.38 34.5341 363.592 35.0909C363.804 35.6439 363.911 36.303 363.911 37.0682V37.6989H356.757V36.3125H361.939C361.935 35.9186 361.85 35.5682 361.683 35.2614C361.517 34.9508 361.284 34.7064 360.984 34.5284C360.689 34.3504 360.344 34.2614 359.95 34.2614C359.53 34.2614 359.161 34.3636 358.842 34.5682C358.524 34.7689 358.276 35.0341 358.098 35.3636C357.924 35.6894 357.835 36.0473 357.831 36.4375V37.6477C357.831 38.1553 357.924 38.5909 358.109 38.9545C358.295 39.3144 358.554 39.5909 358.888 39.7841C359.221 39.9735 359.611 40.0682 360.058 40.0682C360.357 40.0682 360.628 40.0265 360.871 39.9432C361.113 39.8561 361.323 39.7292 361.501 39.5625C361.679 39.3958 361.814 39.1894 361.905 38.9432L363.825 39.1591C363.704 39.6667 363.473 40.1098 363.132 40.4886C362.795 40.8636 362.363 41.1553 361.837 41.3636C361.31 41.5682 360.708 41.6705 360.03 41.6705Z" fill="white"/>
<rect x="410" width="202" height="72" rx="16" fill="url(#paint2_linear_39_1182)"/>
<path d="M488.71 29.8636V41.5H486.835L481.352 33.5739H481.256V41.5H479.148V29.8636H481.034L486.511 37.7955H486.614V29.8636H488.71ZM493.428 41.6761C492.875 41.6761 492.376 41.5777 491.933 41.3807C491.494 41.1799 491.145 40.8845 490.888 40.4943C490.634 40.1042 490.507 39.6231 490.507 39.0511C490.507 38.5587 490.598 38.1515 490.78 37.8295C490.962 37.5076 491.21 37.25 491.524 37.0568C491.839 36.8636 492.193 36.7178 492.587 36.6193C492.984 36.517 493.395 36.4432 493.82 36.3977C494.331 36.3447 494.746 36.2973 495.064 36.2557C495.382 36.2102 495.613 36.142 495.757 36.0511C495.905 35.9564 495.979 35.8106 495.979 35.6136V35.5795C495.979 35.1515 495.852 34.8201 495.598 34.5852C495.344 34.3504 494.979 34.233 494.501 34.233C493.998 34.233 493.598 34.3428 493.303 34.5625C493.011 34.7822 492.814 35.0417 492.712 35.3409L490.791 35.0682C490.943 34.5379 491.193 34.0947 491.541 33.7386C491.89 33.3788 492.316 33.1098 492.82 32.9318C493.323 32.75 493.88 32.6591 494.49 32.6591C494.911 32.6591 495.329 32.7083 495.746 32.8068C496.162 32.9053 496.543 33.0682 496.888 33.2955C497.232 33.5189 497.509 33.8239 497.717 34.2102C497.929 34.5966 498.036 35.0795 498.036 35.6591V41.5H496.058V40.3011H495.99C495.865 40.5436 495.689 40.7708 495.462 40.983C495.238 41.1913 494.956 41.3598 494.615 41.4886C494.278 41.6136 493.882 41.6761 493.428 41.6761ZM493.962 40.1648C494.375 40.1648 494.732 40.0833 495.036 39.9205C495.339 39.7538 495.571 39.5341 495.734 39.2614C495.901 38.9886 495.984 38.6913 495.984 38.3693V37.3409C495.92 37.3939 495.81 37.4432 495.655 37.4886C495.503 37.5341 495.333 37.5739 495.143 37.608C494.954 37.642 494.767 37.6723 494.581 37.6989C494.395 37.7254 494.234 37.7481 494.098 37.767C493.791 37.8087 493.517 37.8769 493.274 37.9716C493.032 38.0663 492.84 38.1989 492.7 38.3693C492.56 38.536 492.49 38.7519 492.49 39.017C492.49 39.3958 492.628 39.6818 492.905 39.875C493.181 40.0682 493.534 40.1648 493.962 40.1648ZM503.959 41.5V40.1932L508.459 34.5511V34.4773H504.107V32.7727H510.976V34.1761L506.692 39.7216V39.7955H511.124V41.5H503.959ZM507.499 31.5341C507.169 31.5341 506.887 31.4261 506.652 31.2102C506.421 30.9905 506.305 30.7273 506.305 30.4205C506.305 30.1098 506.423 29.8466 506.658 29.6307C506.893 29.411 507.173 29.3011 507.499 29.3011C507.824 29.3011 508.103 29.411 508.334 29.6307C508.569 29.8466 508.686 30.1098 508.686 30.4205C508.686 30.7273 508.569 30.9905 508.334 31.2102C508.103 31.4261 507.824 31.5341 507.499 31.5341ZM514.335 44.7727C514.055 44.7727 513.795 44.75 513.557 44.7045C513.322 44.6629 513.134 44.6136 512.994 44.5568L513.472 42.9545C513.771 43.0417 514.038 43.0833 514.273 43.0795C514.508 43.0758 514.714 43.0019 514.892 42.858C515.074 42.7178 515.227 42.483 515.352 42.1534L515.528 41.6818L512.364 32.7727H514.545L516.557 39.3636H516.648L518.665 32.7727H520.852L517.358 42.5568C517.195 43.0189 516.979 43.4148 516.71 43.7443C516.441 44.0777 516.112 44.3314 515.722 44.5057C515.335 44.6837 514.873 44.7727 514.335 44.7727ZM525.786 41.6705C524.914 41.6705 524.166 41.4792 523.541 41.0966C522.92 40.714 522.441 40.1856 522.104 39.5114C521.77 38.8333 521.604 38.053 521.604 37.1705C521.604 36.2841 521.774 35.5019 522.115 34.8239C522.456 34.142 522.937 33.6117 523.558 33.233C524.183 32.8504 524.922 32.6591 525.774 32.6591C526.482 32.6591 527.109 32.7898 527.655 33.0511C528.204 33.3087 528.642 33.6742 528.967 34.1477C529.293 34.6174 529.479 35.1667 529.524 35.7955H527.558C527.479 35.375 527.289 35.0246 526.99 34.7443C526.695 34.4602 526.299 34.3182 525.803 34.3182C525.382 34.3182 525.013 34.4318 524.695 34.6591C524.376 34.8826 524.128 35.2045 523.95 35.625C523.776 36.0455 523.689 36.5492 523.689 37.1364C523.689 37.7311 523.776 38.2424 523.95 38.6705C524.125 39.0947 524.369 39.4223 524.683 39.6534C525.001 39.8807 525.375 39.9943 525.803 39.9943C526.106 39.9943 526.376 39.9375 526.615 39.8239C526.857 39.7064 527.06 39.5379 527.223 39.3182C527.386 39.0985 527.498 38.8314 527.558 38.517H529.524C529.475 39.1345 529.293 39.6818 528.979 40.1591C528.664 40.6326 528.236 41.0038 527.695 41.2727C527.153 41.5379 526.517 41.6705 525.786 41.6705ZM531.213 41.5V32.7727H533.27V41.5H531.213ZM532.247 31.5341C531.921 31.5341 531.641 31.4261 531.406 31.2102C531.171 30.9905 531.054 30.7273 531.054 30.4205C531.054 30.1098 531.171 29.8466 531.406 29.6307C531.641 29.411 531.921 29.3011 532.247 29.3011C532.577 29.3011 532.857 29.411 533.088 29.6307C533.323 29.8466 533.44 30.1098 533.44 30.4205C533.44 30.7273 533.323 30.9905 533.088 31.2102C532.857 31.4261 532.577 31.5341 532.247 31.5341ZM539.249 41.6705C538.374 41.6705 537.618 41.4886 536.982 41.125C536.349 40.7576 535.862 40.2386 535.521 39.5682C535.18 38.8939 535.01 38.1004 535.01 37.1875C535.01 36.2898 535.18 35.5019 535.521 34.8239C535.866 34.142 536.347 33.6117 536.964 33.233C537.582 32.8504 538.307 32.6591 539.141 32.6591C539.679 32.6591 540.186 32.7462 540.663 32.9205C541.144 33.0909 541.569 33.3561 541.936 33.7159C542.307 34.0758 542.599 34.5341 542.811 35.0909C543.023 35.6439 543.129 36.303 543.129 37.0682V37.6989H535.976V36.3125H541.158C541.154 35.9186 541.069 35.5682 540.902 35.2614C540.735 34.9508 540.502 34.7064 540.203 34.5284C539.908 34.3504 539.563 34.2614 539.169 34.2614C538.749 34.2614 538.379 34.3636 538.061 34.5682C537.743 34.7689 537.495 35.0341 537.317 35.3636C537.143 35.6894 537.054 36.0473 537.05 36.4375V37.6477C537.05 38.1553 537.143 38.5909 537.328 38.9545C537.514 39.3144 537.773 39.5909 538.107 39.7841C538.44 39.9735 538.83 40.0682 539.277 40.0682C539.576 40.0682 539.847 40.0265 540.089 39.9432C540.332 39.8561 540.542 39.7292 540.72 39.5625C540.898 39.3958 541.033 39.1894 541.124 38.9432L543.044 39.1591C542.923 39.6667 542.692 40.1098 542.351 40.4886C542.014 40.8636 541.582 41.1553 541.055 41.3636C540.529 41.5682 539.927 41.6705 539.249 41.6705Z" fill="white"/>
<rect x="615" width="202" height="72" rx="16" fill="url(#paint3_linear_39_1182)"/>
<path d="M668.136 31.6307V29.8636H677.42V31.6307H673.824V41.5H671.733V31.6307H668.136ZM683.494 37.8295V32.7727H685.551V41.5H683.557V39.9489H683.466C683.269 40.4375 682.945 40.8371 682.494 41.1477C682.047 41.4583 681.496 41.6136 680.841 41.6136C680.269 41.6136 679.763 41.4867 679.324 41.233C678.888 40.9754 678.547 40.6023 678.301 40.1136C678.055 39.6212 677.932 39.0265 677.932 38.3295V32.7727H679.989V38.0114C679.989 38.5644 680.14 39.0038 680.443 39.3295C680.746 39.6553 681.144 39.8182 681.636 39.8182C681.939 39.8182 682.233 39.7443 682.517 39.5966C682.801 39.4489 683.034 39.2292 683.216 38.9375C683.402 38.642 683.494 38.2727 683.494 37.8295ZM687.666 41.5V32.7727H689.661V34.2273H689.751C689.911 33.7235 690.183 33.3352 690.57 33.0625C690.96 32.786 691.405 32.6477 691.905 32.6477C692.018 32.6477 692.145 32.6534 692.286 32.6648C692.429 32.6723 692.549 32.6856 692.643 32.7045V34.5966C692.556 34.5663 692.418 34.5398 692.229 34.517C692.043 34.4905 691.863 34.4773 691.689 34.4773C691.314 34.4773 690.977 34.5587 690.678 34.7216C690.382 34.8807 690.149 35.1023 689.979 35.3864C689.808 35.6705 689.723 35.9981 689.723 36.3693V41.5H687.666ZM695.554 44.7727C695.274 44.7727 695.014 44.75 694.776 44.7045C694.541 44.6629 694.353 44.6136 694.213 44.5568L694.69 42.9545C694.99 43.0417 695.257 43.0833 695.491 43.0795C695.726 43.0758 695.933 43.0019 696.111 42.858C696.293 42.7178 696.446 42.483 696.571 42.1534L696.747 41.6818L693.582 32.7727H695.764L697.776 39.3636H697.866L699.884 32.7727H702.071L698.577 42.5568C698.414 43.0189 698.198 43.4148 697.929 43.7443C697.66 44.0777 697.33 44.3314 696.94 44.5057C696.554 44.6837 696.092 44.7727 695.554 44.7727ZM710.392 35.0795L708.517 35.2841C708.464 35.0947 708.371 34.9167 708.239 34.75C708.11 34.5833 707.936 34.4489 707.716 34.3466C707.496 34.2443 707.227 34.1932 706.909 34.1932C706.481 34.1932 706.121 34.286 705.83 34.4716C705.542 34.6572 705.4 34.8977 705.403 35.1932C705.4 35.447 705.492 35.6534 705.682 35.8125C705.875 35.9716 706.193 36.1023 706.636 36.2045L708.125 36.5227C708.951 36.7008 709.564 36.983 709.966 37.3693C710.371 37.7557 710.576 38.2614 710.58 38.8864C710.576 39.4356 710.415 39.9205 710.097 40.3409C709.782 40.7576 709.345 41.0833 708.784 41.3182C708.223 41.553 707.58 41.6705 706.852 41.6705C705.784 41.6705 704.924 41.447 704.273 41C703.621 40.5492 703.233 39.9223 703.108 39.1193L705.114 38.9261C705.205 39.3201 705.398 39.6174 705.693 39.8182C705.989 40.0189 706.373 40.1193 706.847 40.1193C707.335 40.1193 707.727 40.0189 708.023 39.8182C708.322 39.6174 708.472 39.3693 708.472 39.0739C708.472 38.8239 708.375 38.6174 708.182 38.4545C707.992 38.2917 707.697 38.1667 707.295 38.0795L705.807 37.767C704.97 37.5928 704.35 37.2992 703.949 36.8864C703.547 36.4697 703.348 35.9432 703.352 35.3068C703.348 34.7689 703.494 34.303 703.79 33.9091C704.089 33.5114 704.504 33.2045 705.034 32.9886C705.568 32.7689 706.184 32.6591 706.881 32.6591C707.903 32.6591 708.708 32.8769 709.295 33.3125C709.886 33.7481 710.252 34.3371 710.392 35.0795ZM716.634 32.7727V34.3636H711.616V32.7727H716.634ZM712.855 30.6818H714.912V38.875C714.912 39.1515 714.954 39.3636 715.037 39.5114C715.124 39.6553 715.238 39.7538 715.378 39.8068C715.518 39.8598 715.673 39.8864 715.844 39.8864C715.973 39.8864 716.09 39.8769 716.196 39.858C716.306 39.839 716.389 39.822 716.446 39.8068L716.793 41.4148C716.683 41.4527 716.526 41.4943 716.321 41.5398C716.12 41.5852 715.874 41.6117 715.582 41.6193C715.067 41.6345 714.603 41.5568 714.19 41.3864C713.777 41.2121 713.45 40.9432 713.207 40.5795C712.969 40.2159 712.851 39.7614 712.855 39.2159V30.6818ZM719.632 44.7727C719.352 44.7727 719.092 44.75 718.854 44.7045C718.619 44.6629 718.431 44.6136 718.291 44.5568L718.768 42.9545C719.068 43.0417 719.335 43.0833 719.57 43.0795C719.804 43.0758 720.011 43.0019 720.189 42.858C720.371 42.7178 720.524 42.483 720.649 42.1534L720.825 41.6818L717.661 32.7727H719.842L721.854 39.3636H721.945L723.962 32.7727H726.149L722.655 42.5568C722.492 43.0189 722.276 43.4148 722.007 43.7443C721.738 44.0777 721.409 44.3314 721.018 44.5057C720.632 44.6837 720.17 44.7727 719.632 44.7727ZM731.082 41.6705C730.211 41.6705 729.463 41.4792 728.838 41.0966C728.217 40.714 727.738 40.1856 727.401 39.5114C727.067 38.8333 726.901 38.053 726.901 37.1705C726.901 36.2841 727.071 35.5019 727.412 34.8239C727.753 34.142 728.234 33.6117 728.855 33.233C729.48 32.8504 730.219 32.6591 731.071 32.6591C731.779 32.6591 732.406 32.7898 732.952 33.0511C733.501 33.3087 733.938 33.6742 734.264 34.1477C734.59 34.6174 734.776 35.1667 734.821 35.7955H732.855C732.776 35.375 732.586 35.0246 732.287 34.7443C731.991 34.4602 731.596 34.3182 731.099 34.3182C730.679 34.3182 730.31 34.4318 729.991 34.6591C729.673 34.8826 729.425 35.2045 729.247 35.625C729.073 36.0455 728.986 36.5492 728.986 37.1364C728.986 37.7311 729.073 38.2424 729.247 38.6705C729.421 39.0947 729.666 39.4223 729.98 39.6534C730.298 39.8807 730.671 39.9943 731.099 39.9943C731.402 39.9943 731.673 39.9375 731.912 39.8239C732.154 39.7064 732.357 39.5379 732.52 39.3182C732.683 39.0985 732.795 38.8314 732.855 38.517H734.821C734.772 39.1345 734.59 39.6818 734.276 40.1591C733.961 40.6326 733.533 41.0038 732.991 41.2727C732.45 41.5379 731.813 41.6705 731.082 41.6705ZM736.396 41.5V40.1932L740.896 34.5511V34.4773H736.544V32.7727H743.413V34.1761L739.129 39.7216V39.7955H743.561V41.5H736.396ZM747.551 36.3864V41.5H745.494V32.7727H747.46V34.2557H747.562C747.763 33.767 748.083 33.3788 748.523 33.0909C748.966 32.803 749.513 32.6591 750.165 32.6591C750.767 32.6591 751.292 32.7879 751.739 33.0455C752.189 33.303 752.538 33.6761 752.784 34.1648C753.034 34.6534 753.157 35.2462 753.153 35.9432V41.5H751.097V36.2614C751.097 35.678 750.945 35.2216 750.642 34.892C750.343 34.5625 749.928 34.3977 749.398 34.3977C749.038 34.3977 748.718 34.4773 748.438 34.6364C748.161 34.7917 747.943 35.017 747.784 35.3125C747.629 35.608 747.551 35.9659 747.551 36.3864ZM759.108 41.6705C758.233 41.6705 757.477 41.4886 756.841 41.125C756.208 40.7576 755.722 40.2386 755.381 39.5682C755.04 38.8939 754.869 38.1004 754.869 37.1875C754.869 36.2898 755.04 35.5019 755.381 34.8239C755.725 34.142 756.206 33.6117 756.824 33.233C757.441 32.8504 758.167 32.6591 759 32.6591C759.538 32.6591 760.045 32.7462 760.523 32.9205C761.004 33.0909 761.428 33.3561 761.795 33.7159C762.167 34.0758 762.458 34.5341 762.67 35.0909C762.883 35.6439 762.989 36.303 762.989 37.0682V37.6989H755.835V36.3125H761.017C761.013 35.9186 760.928 35.5682 760.761 35.2614C760.595 34.9508 760.362 34.7064 760.062 34.5284C759.767 34.3504 759.422 34.2614 759.028 34.2614C758.608 34.2614 758.239 34.3636 757.92 34.5682C757.602 34.7689 757.354 35.0341 757.176 35.3636C757.002 35.6894 756.913 36.0473 756.909 36.4375V37.6477C756.909 38.1553 757.002 38.5909 757.188 38.9545C757.373 39.3144 757.633 39.5909 757.966 39.7841C758.299 39.9735 758.689 40.0682 759.136 40.0682C759.436 40.0682 759.706 40.0265 759.949 39.9432C760.191 39.8561 760.402 39.7292 760.58 39.5625C760.758 39.3958 760.892 39.1894 760.983 38.9432L762.903 39.1591C762.782 39.6667 762.551 40.1098 762.21 40.4886C761.873 40.8636 761.441 41.1553 760.915 41.3636C760.388 41.5682 759.786 41.6705 759.108 41.6705Z" fill="white"/>
<defs>
<linearGradient id="paint0_linear_39_1182" x1="101" y1="0" x2="101" y2="72" gradientUnits="userSpaceOnUse">
<stop stop-color="#F1AB60"/>
<stop offset="1" stop-color="#E06A34"/>
</linearGradient>
<linearGradient id="paint1_linear_39_1182" x1="306" y1="0" x2="306" y2="72" gradientUnits="userSpaceOnUse">
<stop stop-color="#F1AB60"/>
<stop offset="1" stop-color="#E06A34"/>
</linearGradient>
<linearGradient id="paint2_linear_39_1182" x1="511" y1="0" x2="511" y2="72" gradientUnits="userSpaceOnUse">
<stop stop-color="#F1AB60"/>
<stop offset="1" stop-color="#E06A34"/>
</linearGradient>
<linearGradient id="paint3_linear_39_1182" x1="716" y1="0" x2="716" y2="72" gradientUnits="userSpaceOnUse">
<stop stop-color="#F1AB60"/>
<stop offset="1" stop-color="#E06A34"/>
</linearGradient>
</defs>
</svg>
