<svg width="1180" height="287" viewBox="0 0 1180 287" fill="none" xmlns="http://www.w3.org/2000/svg">
<rect width="1180" height="287" rx="16" fill="url(#paint0_radial_39_1119)"/>
<path d="M52.08 239V207.32H58.064V221.928L70.12 207.32H77.424L64.18 222.94L78.26 239H70.692L58.064 224.568V239H52.08ZM90.272 239.66C87.8813 239.66 85.784 239.125 83.98 238.054C82.176 236.983 80.768 235.509 79.756 233.632C78.7587 231.74 78.26 229.569 78.26 227.12C78.26 224.641 78.7733 222.463 79.8 220.586C80.8267 218.694 82.242 217.22 84.046 216.164C85.85 215.108 87.9253 214.58 90.272 214.58C92.6627 214.58 94.76 215.115 96.564 216.186C98.3827 217.257 99.798 218.738 100.81 220.63C101.822 222.507 102.328 224.671 102.328 227.12C102.328 229.584 101.815 231.762 100.788 233.654C99.776 235.531 98.3607 237.005 96.542 238.076C94.738 239.132 92.648 239.66 90.272 239.66ZM90.272 234.072C92.1933 234.072 93.6233 233.427 94.562 232.136C95.5153 230.831 95.992 229.159 95.992 227.12C95.992 225.008 95.508 223.321 94.54 222.06C93.5867 220.799 92.164 220.168 90.272 220.168C88.9667 220.168 87.896 220.461 87.06 221.048C86.224 221.635 85.6007 222.449 85.19 223.49C84.794 224.531 84.596 225.741 84.596 227.12C84.596 229.247 85.0727 230.941 86.026 232.202C86.994 233.449 88.4093 234.072 90.272 234.072ZM123.358 239V227.78C123.358 227.237 123.329 226.548 123.27 225.712C123.211 224.861 123.028 224.011 122.72 223.16C122.412 222.309 121.906 221.598 121.202 221.026C120.513 220.454 119.53 220.168 118.254 220.168C117.741 220.168 117.191 220.249 116.604 220.41C116.017 220.571 115.467 220.887 114.954 221.356C114.441 221.811 114.015 222.485 113.678 223.38C113.355 224.275 113.194 225.463 113.194 226.944L109.762 225.316C109.762 223.439 110.143 221.679 110.906 220.036C111.669 218.393 112.813 217.066 114.338 216.054C115.878 215.042 117.814 214.536 120.146 214.536C122.009 214.536 123.527 214.851 124.7 215.482C125.873 216.113 126.783 216.912 127.428 217.88C128.088 218.848 128.557 219.86 128.836 220.916C129.115 221.957 129.283 222.911 129.342 223.776C129.401 224.641 129.43 225.272 129.43 225.668V239H123.358ZM107.122 239V215.24H112.446V223.116H113.194V239H107.122ZM149.395 239C147.752 239.308 146.139 239.44 144.555 239.396C142.985 239.367 141.577 239.095 140.331 238.582C139.099 238.054 138.16 237.211 137.515 236.052C136.928 234.967 136.62 233.867 136.591 232.752C136.561 231.623 136.547 230.347 136.547 228.924V208.64H142.531V228.572C142.531 229.496 142.538 230.332 142.553 231.08C142.582 231.813 142.736 232.4 143.015 232.84C143.543 233.676 144.386 234.131 145.545 234.204C146.703 234.277 147.987 234.219 149.395 234.028V239ZM132.499 219.86V215.24H149.395V219.86H132.499ZM161.289 239.66C159.588 239.66 158.143 239.337 156.955 238.692C155.782 238.032 154.887 237.159 154.271 236.074C153.67 234.974 153.369 233.764 153.369 232.444C153.369 231.344 153.538 230.339 153.875 229.43C154.213 228.521 154.755 227.721 155.503 227.032C156.266 226.328 157.285 225.741 158.561 225.272C159.441 224.949 160.49 224.663 161.707 224.414C162.925 224.165 164.303 223.93 165.843 223.71C167.383 223.475 169.077 223.219 170.925 222.94L168.769 224.128C168.769 222.72 168.432 221.686 167.757 221.026C167.083 220.366 165.953 220.036 164.369 220.036C163.489 220.036 162.573 220.249 161.619 220.674C160.666 221.099 159.999 221.855 159.617 222.94L154.205 221.224C154.807 219.259 155.936 217.66 157.593 216.428C159.251 215.196 161.509 214.58 164.369 214.58C166.467 214.58 168.329 214.903 169.957 215.548C171.585 216.193 172.817 217.308 173.653 218.892C174.123 219.772 174.401 220.652 174.489 221.532C174.577 222.412 174.621 223.395 174.621 224.48V239H169.385V234.116L170.133 235.128C168.975 236.727 167.721 237.885 166.371 238.604C165.037 239.308 163.343 239.66 161.289 239.66ZM162.565 234.952C163.665 234.952 164.589 234.761 165.337 234.38C166.1 233.984 166.701 233.537 167.141 233.038C167.596 232.539 167.904 232.121 168.065 231.784C168.373 231.139 168.549 230.391 168.593 229.54C168.652 228.675 168.681 227.956 168.681 227.384L170.441 227.824C168.667 228.117 167.229 228.367 166.129 228.572C165.029 228.763 164.142 228.939 163.467 229.1C162.793 229.261 162.199 229.437 161.685 229.628C161.099 229.863 160.622 230.119 160.255 230.398C159.903 230.662 159.639 230.955 159.463 231.278C159.302 231.601 159.221 231.96 159.221 232.356C159.221 232.899 159.353 233.368 159.617 233.764C159.896 234.145 160.285 234.439 160.783 234.644C161.282 234.849 161.876 234.952 162.565 234.952ZM180.298 239L180.342 207.32H186.414V226.68L194.466 215.24H201.858L193.278 227.12L202.43 239H194.642L186.414 227.56V239H180.298ZM218.875 239C217.232 239.308 215.619 239.44 214.035 239.396C212.466 239.367 211.058 239.095 209.811 238.582C208.579 238.054 207.64 237.211 206.995 236.052C206.408 234.967 206.1 233.867 206.071 232.752C206.042 231.623 206.027 230.347 206.027 228.924V208.64H212.011V228.572C212.011 229.496 212.018 230.332 212.033 231.08C212.062 231.813 212.216 232.4 212.495 232.84C213.023 233.676 213.866 234.131 215.025 234.204C216.184 234.277 217.467 234.219 218.875 234.028V239ZM201.979 219.86V215.24H218.875V219.86H201.979Z" fill="white"/>
<rect width="54" height="54" rx="27" transform="matrix(-1 0 0 1 105 38)" fill="url(#paint1_linear_39_1119)"/>
<path d="M85 65H71M71 65L78 58M71 65L78 72" stroke="white" stroke-width="2" stroke-linecap="round" stroke-linejoin="round"/>
<defs>
<radialGradient id="paint0_radial_39_1119" cx="0" cy="0" r="1" gradientUnits="userSpaceOnUse" gradientTransform="translate(782.885 76.5146) rotate(141.551) scale(324.524 628.275)">
<stop stop-color="#F2B163"/>
<stop offset="1" stop-color="#E06933"/>
</radialGradient>
<linearGradient id="paint1_linear_39_1119" x1="27" y1="0" x2="27" y2="54" gradientUnits="userSpaceOnUse">
<stop stop-color="#F1AB60"/>
<stop offset="1" stop-color="#E06A34"/>
</linearGradient>
</defs>
</svg>
