<svg width="89" height="12" viewBox="0 0 89 12" fill="none" xmlns="http://www.w3.org/2000/svg">
<path fill-rule="evenodd" clip-rule="evenodd" d="M85.987 4.20144C85.3616 4.20144 84.8391 4.43932 84.4194 4.91509C83.9954 5.39078 83.7522 5.98781 83.6779 6.70609L83.6919 6.73871H88.1556V6.52883C88.1556 5.87118 87.9594 5.31149 87.5721 4.86372C87.1804 4.42066 86.6535 4.19681 85.987 4.19681V4.20144ZM86.0942 11.3889C85.1426 11.3889 84.3496 11.0391 83.7198 10.3301C83.09 9.62579 82.7733 8.73496 82.7733 7.65754V7.2704C82.7733 6.17902 83.0856 5.27423 83.7154 4.55595C84.3401 3.83767 85.1007 3.47853 85.9914 3.47853C86.924 3.47853 87.661 3.77704 88.1975 4.36473C88.734 4.95705 89 5.74529 89 6.72938V7.44766H83.6221V7.65291C83.6221 8.51112 83.8506 9.22939 84.3077 9.80768C84.7648 10.386 85.3616 10.6706 86.1031 10.6706C86.63 10.6706 87.0783 10.5959 87.4509 10.4514C87.8198 10.3067 88.1365 10.0969 88.3981 9.82634L88.7568 10.4047C88.4724 10.7032 88.1086 10.9411 87.6654 11.1184C87.2274 11.2955 86.7049 11.3842 86.0987 11.3842L86.0942 11.3889ZM80.9074 1.44032H80.0726V0.255615H80.9074V1.44032ZM80.9074 11.2442H80.0726V3.62308H80.9074V11.2442ZM70.6932 8.77229L70.982 10.1296H71.0239L71.3833 8.77229L73.0015 3.62308H73.729L75.348 8.77229L75.7118 10.1668H75.7537L76.0704 8.77229L77.4556 3.62308H78.328L76.1079 11.2442H75.3943L73.7062 6.03447L73.3748 4.71917H73.3329L72.9971 6.03447L71.3318 11.2442H70.6043L68.3937 3.62308H69.2705L70.6932 8.77229ZM61.3976 7.55495C61.3976 8.43645 61.621 9.17803 62.0641 9.77975C62.5124 10.3814 63.1327 10.6799 63.93 10.6799C64.7274 10.6799 65.3293 10.3814 65.7768 9.77975C66.2251 9.17803 66.4485 8.43645 66.4485 7.55495V7.32177C66.4485 6.45424 66.2251 5.71729 65.7724 5.11094C65.3197 4.50465 64.7046 4.20144 63.9161 4.20144C63.1275 4.20144 62.5073 4.50465 62.0641 5.11094C61.621 5.71729 61.3976 6.45424 61.3976 7.32177V7.55495ZM60.5532 7.32177C60.5532 6.19769 60.8612 5.27886 61.477 4.56058C62.0921 3.8423 62.9085 3.48316 63.9205 3.48316C64.9332 3.48316 65.7584 3.8423 66.3743 4.56058C66.985 5.27886 67.2929 6.20239 67.2929 7.32177V7.55495C67.2929 8.68367 66.985 9.6025 66.3743 10.3208C65.7629 11.0344 64.9515 11.3935 63.9344 11.3935C62.9181 11.3935 62.0921 11.0344 61.477 10.3208C60.8612 9.60713 60.5532 8.68367 60.5532 7.55495V7.32177ZM54.5315 10.5307H59.4803V11.2442H53.4917V10.6239L58.0811 4.3554H53.632V3.62779H59.1444V4.25274L54.5315 10.5353V10.5307ZM49.3219 10.6799C49.8768 10.6799 50.3714 10.5213 50.8005 10.2041C51.2297 9.88234 51.4443 9.43928 51.4443 8.87026H52.1902L52.2042 8.91222C52.2277 9.61646 51.9477 10.2042 51.3605 10.6799C50.7726 11.1556 50.0965 11.3889 49.3271 11.3889C48.2865 11.3889 47.4891 11.0344 46.9203 10.3208C46.3559 9.60713 46.0715 8.69763 46.0715 7.57825V7.27974C46.0715 6.16969 46.3559 5.26019 46.9247 4.54662C47.4935 3.83297 48.2916 3.47853 49.3175 3.47853C50.1524 3.47853 50.852 3.72575 51.4024 4.22011C51.9616 4.71454 52.2277 5.35815 52.2093 6.16036L52.1954 6.20239H51.4443C51.4443 5.59133 51.2341 5.10631 50.8284 4.74246C50.4184 4.3787 49.9142 4.19681 49.3175 4.19681C48.5011 4.19681 47.8948 4.49062 47.5031 5.07368C47.1114 5.65666 46.9152 6.39361 46.9152 7.28444V7.57825C46.9152 8.47841 47.1114 9.22006 47.4987 9.80305C47.8904 10.386 48.4967 10.6752 49.3219 10.6752V10.6799ZM40.8009 10.6426C41.4072 10.6426 41.9437 10.5027 42.4052 10.2182C42.8718 9.93364 43.2025 9.56987 43.4127 9.12673V7.53629H41.7151C40.9501 7.53629 40.3387 7.69951 39.8816 8.02602C39.4245 8.35253 39.1915 8.75826 39.1915 9.23873C39.1915 9.65379 39.3319 9.98964 39.6207 10.2461C39.9051 10.5074 40.2968 10.638 40.8009 10.638V10.6426ZM43.5663 11.2442C43.5104 10.9878 43.4685 10.7638 43.445 10.5773C43.4222 10.3907 43.4083 10.1995 43.4083 10.0083C43.1283 10.4047 42.7506 10.7358 42.2839 11.0017C41.8129 11.2629 41.2859 11.3935 40.698 11.3935C39.9565 11.3935 39.3826 11.1976 38.9681 10.8012C38.5573 10.4094 38.3523 9.87764 38.3523 9.21536C38.3523 8.51112 38.655 7.94672 39.2613 7.52695C39.8727 7.10256 40.6885 6.89267 41.7239 6.89267H43.4083V5.94584C43.4083 5.40482 43.2356 4.97572 42.8858 4.66317C42.536 4.3554 42.0458 4.20144 41.4168 4.20144C40.8288 4.20144 40.3438 4.3507 39.9565 4.64458C39.5692 4.93839 39.3782 5.30216 39.3782 5.72663L38.6036 5.71729L38.5896 5.67533C38.5617 5.11094 38.8233 4.59791 39.3686 4.15485C39.919 3.70238 40.6098 3.47853 41.4586 3.47853C42.3074 3.47853 42.974 3.69304 43.4869 4.12215C43.9955 4.54662 44.252 5.1576 44.252 5.95518V9.70046C44.252 9.97097 44.2659 10.2275 44.299 10.484C44.3313 10.7358 44.3828 10.9878 44.4482 11.2396H43.5663V11.2442ZM36.0058 7.49433C36.0058 6.5242 35.8191 5.73126 35.4414 5.12497C35.0636 4.51391 34.5088 4.21548 33.7717 4.21548C33.1889 4.21548 32.7135 4.36003 32.3541 4.65384C31.9948 4.94302 31.7287 5.31619 31.5568 5.77329V9.21536C31.7427 9.6585 32.0227 10.0083 32.396 10.2695C32.7693 10.5307 33.2308 10.6613 33.7857 10.6613C34.5228 10.6613 35.0732 10.3907 35.4465 9.84501C35.8191 9.30399 36.0014 8.56704 36.0014 7.64821V7.49896L36.0058 7.49433ZM36.8597 7.64358C36.8597 8.78626 36.5981 9.69112 36.0851 10.3767C35.5678 11.053 34.8586 11.3935 33.954 11.3935C33.394 11.3935 32.9134 11.2816 32.5077 11.0577C32.1072 10.8338 31.7758 10.5166 31.5288 10.0969L31.4399 11.2442H30.7124V0.260281H31.5568V4.82176C31.8081 4.39266 32.1351 4.06622 32.5268 3.83297C32.9229 3.59979 33.3896 3.48316 33.9349 3.48316C34.8491 3.48316 35.5678 3.847 36.0807 4.57925C36.5981 5.31149 36.8546 6.28161 36.8546 7.49433V7.64358H36.8597ZM27.6854 9.99427C27.4377 10.442 27.1114 10.7825 26.7014 11.025C26.2861 11.2676 25.8011 11.3889 25.2367 11.3889C24.4342 11.3889 23.8044 11.1184 23.3473 10.5726C22.8954 10.0316 22.6617 9.18273 22.6617 8.03535V3.61845H23.5112V8.04931C23.5112 8.98218 23.6692 9.64446 23.9867 10.0503C24.3041 10.4514 24.7517 10.6565 25.3345 10.6565C25.9687 10.6565 26.4816 10.512 26.8594 10.2275C27.2422 9.94297 27.5083 9.5465 27.6574 9.04744V3.62779H28.5018V11.2489H27.7552L27.6854 10.0036V9.99427ZM16.1741 10.5307H21.2485V11.2442H15.3348V0.992546H16.1792V10.5353L16.1741 10.5307ZM2.32219 8.77229L2.611 10.1296H2.65288L3.01224 8.77229L4.63047 3.62308H5.3536L6.97182 8.77229L7.3356 10.1668H7.37748L7.69496 8.77229L9.08021 3.62308H9.95252L7.73243 11.2442H7.01371L5.32053 6.03447L4.99424 4.71917H4.95235L4.6165 6.03447L2.95125 11.2442H2.22886L0.0175781 3.62308H0.894305L2.31704 8.77229H2.32219Z" fill="#1B1918"/>
</svg>
