<svg width="1180" height="287" viewBox="0 0 1180 287" fill="none" xmlns="http://www.w3.org/2000/svg">
<rect width="1180" height="287" rx="16" fill="url(#paint0_radial_37_682)"/>
<path d="M65.676 239.66C62.508 239.66 59.7727 238.971 57.47 237.592C55.182 236.213 53.4147 234.285 52.168 231.806C50.936 229.327 50.32 226.445 50.32 223.16C50.32 219.875 50.936 216.993 52.168 214.514C53.4147 212.035 55.182 210.107 57.47 208.728C59.7727 207.349 62.508 206.66 65.676 206.66C68.844 206.66 71.572 207.349 73.86 208.728C76.1627 210.107 77.93 212.035 79.162 214.514C80.4087 216.993 81.032 219.875 81.032 223.16C81.032 226.445 80.4087 229.327 79.162 231.806C77.93 234.285 76.1627 236.213 73.86 237.592C71.572 238.971 68.844 239.66 65.676 239.66ZM65.676 234.028C67.6853 234.057 69.3573 233.625 70.692 232.73C72.0267 231.835 73.024 230.567 73.684 228.924C74.3587 227.281 74.696 225.36 74.696 223.16C74.696 220.96 74.3587 219.053 73.684 217.44C73.024 215.827 72.0267 214.573 70.692 213.678C69.3573 212.783 67.6853 212.321 65.676 212.292C63.6667 212.263 61.9947 212.695 60.66 213.59C59.3253 214.485 58.3207 215.753 57.646 217.396C56.986 219.039 56.656 220.96 56.656 223.16C56.656 225.36 56.986 227.267 57.646 228.88C58.3207 230.493 59.3253 231.747 60.66 232.642C61.9947 233.537 63.6667 233.999 65.676 234.028ZM110.424 239V227.78C110.424 227.237 110.395 226.548 110.336 225.712C110.278 224.861 110.094 224.011 109.786 223.16C109.478 222.309 108.972 221.598 108.268 221.026C107.579 220.454 106.596 220.168 105.32 220.168C104.807 220.168 104.257 220.249 103.67 220.41C103.084 220.571 102.534 220.887 102.02 221.356C101.507 221.811 101.082 222.485 100.744 223.38C100.422 224.275 100.26 225.463 100.26 226.944L96.8283 225.316C96.8283 223.439 97.2097 221.679 97.9723 220.036C98.735 218.393 99.879 217.066 101.404 216.054C102.944 215.042 104.88 214.536 107.212 214.536C109.075 214.536 110.593 214.851 111.766 215.482C112.94 216.113 113.849 216.912 114.494 217.88C115.154 218.848 115.624 219.86 115.902 220.916C116.181 221.957 116.35 222.911 116.408 223.776C116.467 224.641 116.496 225.272 116.496 225.668V239H110.424ZM94.1883 239V215.24H99.5123V223.116H100.26V239H94.1883ZM128.805 239.66C127.104 239.66 125.659 239.337 124.471 238.692C123.298 238.032 122.403 237.159 121.787 236.074C121.186 234.974 120.885 233.764 120.885 232.444C120.885 231.344 121.054 230.339 121.391 229.43C121.728 228.521 122.271 227.721 123.019 227.032C123.782 226.328 124.801 225.741 126.077 225.272C126.957 224.949 128.006 224.663 129.223 224.414C130.44 224.165 131.819 223.93 133.359 223.71C134.899 223.475 136.593 223.219 138.441 222.94L136.285 224.128C136.285 222.72 135.948 221.686 135.273 221.026C134.598 220.366 133.469 220.036 131.885 220.036C131.005 220.036 130.088 220.249 129.135 220.674C128.182 221.099 127.514 221.855 127.133 222.94L121.721 221.224C122.322 219.259 123.452 217.66 125.109 216.428C126.766 215.196 129.025 214.58 131.885 214.58C133.982 214.58 135.845 214.903 137.473 215.548C139.101 216.193 140.333 217.308 141.169 218.892C141.638 219.772 141.917 220.652 142.005 221.532C142.093 222.412 142.137 223.395 142.137 224.48V239H136.901V234.116L137.649 235.128C136.49 236.727 135.236 237.885 133.887 238.604C132.552 239.308 130.858 239.66 128.805 239.66ZM130.081 234.952C131.181 234.952 132.105 234.761 132.853 234.38C133.616 233.984 134.217 233.537 134.657 233.038C135.112 232.539 135.42 232.121 135.581 231.784C135.889 231.139 136.065 230.391 136.109 229.54C136.168 228.675 136.197 227.956 136.197 227.384L137.957 227.824C136.182 228.117 134.745 228.367 133.645 228.572C132.545 228.763 131.658 228.939 130.983 229.1C130.308 229.261 129.714 229.437 129.201 229.628C128.614 229.863 128.138 230.119 127.771 230.398C127.419 230.662 127.155 230.955 126.979 231.278C126.818 231.601 126.737 231.96 126.737 232.356C126.737 232.899 126.869 233.368 127.133 233.764C127.412 234.145 127.8 234.439 128.299 234.644C128.798 234.849 129.392 234.952 130.081 234.952ZM157.141 239.66C154.149 239.66 151.729 238.985 149.881 237.636C148.048 236.272 146.933 234.351 146.537 231.872L152.653 230.948C152.903 232.063 153.453 232.935 154.303 233.566C155.169 234.197 156.261 234.512 157.581 234.512C158.667 234.512 159.503 234.307 160.089 233.896C160.676 233.471 160.969 232.884 160.969 232.136C160.969 231.667 160.852 231.293 160.617 231.014C160.383 230.721 159.855 230.435 159.033 230.156C158.227 229.877 156.965 229.511 155.249 229.056C153.313 228.557 151.766 228 150.607 227.384C149.449 226.768 148.613 226.035 148.099 225.184C147.586 224.319 147.329 223.277 147.329 222.06C147.329 220.535 147.718 219.215 148.495 218.1C149.273 216.971 150.365 216.105 151.773 215.504C153.196 214.888 154.868 214.58 156.789 214.58C158.652 214.58 160.302 214.866 161.739 215.438C163.177 216.01 164.335 216.824 165.215 217.88C166.11 218.936 166.66 220.183 166.865 221.62L160.749 222.72C160.647 221.84 160.265 221.143 159.605 220.63C158.945 220.117 158.051 219.816 156.921 219.728C155.821 219.655 154.934 219.801 154.259 220.168C153.599 220.535 153.269 221.063 153.269 221.752C153.269 222.163 153.409 222.507 153.687 222.786C153.981 223.065 154.575 223.351 155.469 223.644C156.379 223.937 157.757 224.319 159.605 224.788C161.409 225.257 162.854 225.807 163.939 226.438C165.039 227.054 165.839 227.802 166.337 228.682C166.836 229.547 167.085 230.596 167.085 231.828C167.085 234.263 166.205 236.177 164.445 237.57C162.685 238.963 160.251 239.66 157.141 239.66Z" fill="white"/>
<rect width="54" height="54" rx="27" transform="matrix(-1 0 0 1 105 38)" fill="url(#paint1_linear_37_682)"/>
<path d="M85 65H71M71 65L78 58M71 65L78 72" stroke="white" stroke-width="2" stroke-linecap="round" stroke-linejoin="round"/>
<defs>
<radialGradient id="paint0_radial_37_682" cx="0" cy="0" r="1" gradientUnits="userSpaceOnUse" gradientTransform="translate(782.885 76.5146) rotate(141.551) scale(324.524 628.275)">
<stop stop-color="#F2B163"/>
<stop offset="1" stop-color="#E06933"/>
</radialGradient>
<linearGradient id="paint1_linear_37_682" x1="27" y1="0" x2="27" y2="54" gradientUnits="userSpaceOnUse">
<stop stop-color="#F1AB60"/>
<stop offset="1" stop-color="#E06A34"/>
</linearGradient>
</defs>
</svg>
