<svg width="50" height="" viewBox="0 0 201 227" fill="none" xmlns="http://www.w3.org/2000/svg">
<path fill-rule="evenodd" clip-rule="evenodd" d="M4.42106 18.0705C3.81901 18.9887 3.54785 20.0576 3.40925 21.1468C2.01334 32.117 -0.22268 53.1818 0.0179323 68.516C0.105479 74.0954 4.53537 78.4419 10.0138 79.5016C48.1414 86.8764 153.633 117.753 188.426 139.085C188.803 139.316 189.267 139.132 189.425 138.719L189.425 138.718C195.699 122.311 198.136 115.937 199.12 111.016C199.52 108.216 198.287 106.849 197.62 106.516C176.117 93.5506 119.004 66.2155 55.4813 55.5889C49.5615 54.5986 45.0673 49.5361 45.36 43.5412C45.5133 40.402 45.7255 37.7749 45.9532 35.6339C46.4233 31.2139 49.8611 28.1657 54.2875 27.7596C71.3172 26.1975 114.915 23.2088 149.244 27.5285C153.513 28.0656 157.01 31.0199 157.947 35.2186C158.662 38.4244 159.455 42.6413 160.183 47.8435C160.836 52.5037 163.923 56.6135 168.196 58.5849C171.29 60.0126 175.049 61.7965 178.917 63.6715C188.072 68.1092 201.295 60.0732 200.889 49.9073C200.454 39.0027 199.846 27.8682 199.12 23.5158C197.62 16.0158 193.62 14.0158 189.12 12.5158C189.021 12.4826 188.907 12.4446 188.78 12.4018C183.149 10.5128 150.403 -0.473107 96.6202 0.0158299C41.6202 0.51583 12.1202 12.0159 8.6202 14.0159C6.6828 15.123 5.27204 16.7726 4.42106 18.0705ZM161.877 159.191C168.969 161.939 171.672 170.456 166.858 176.344C154.949 190.911 134.779 211.071 109.416 224.992C105.844 226.953 101.51 226.75 97.9796 224.714C96.541 223.885 95.0909 223.055 93.631 222.22C65.4166 206.079 33.579 187.865 11.6891 128.462C8.33302 119.354 17.2476 110.791 26.5028 113.715C29.2301 114.577 31.8839 115.408 34.3941 116.194C39.5971 117.824 44.1835 119.261 47.5288 120.373C51.1129 121.565 53.5733 124.699 55.2684 128.074C60.5292 138.55 75.1039 160.57 95.1268 174.805C98.9679 177.536 104.112 177.29 107.85 174.42C116.907 167.468 124.592 160.389 129.838 155.136C133.41 151.56 138.76 150.233 143.473 152.059L161.877 159.191Z" fill="url(#paint0_radial_30_542)"/>
<defs>
<radialGradient id="paint0_radial_30_542" cx="0" cy="0" r="1" gradientUnits="userSpaceOnUse" gradientTransform="translate(133.288 60.3472) rotate(105.209) scale(164.934 165.994)">
<stop stop-color="#F2B163"/>
<stop offset="1" stop-color="#E06933"/>
</radialGradient>
</defs>
</svg>
