<svg width="1180" height="287" viewBox="0 0 1180 287" fill="none" xmlns="http://www.w3.org/2000/svg">
<rect width="1180" height="287" rx="16" fill="url(#paint0_radial_30_596)"/>
<path d="M55.664 179.24C54.7733 179.24 53.9867 179.056 53.304 178.688C52.6213 178.32 52.0853 177.805 51.696 177.144C51.312 176.477 51.12 175.696 51.12 174.8V167.488L52.56 167.48V174.68C52.56 175.224 52.6507 175.699 52.832 176.104C53.0187 176.504 53.264 176.837 53.568 177.104C53.872 177.371 54.2053 177.571 54.568 177.704C54.936 177.832 55.3013 177.896 55.664 177.896C56.032 177.896 56.4 177.829 56.768 177.696C57.136 177.563 57.4693 177.365 57.768 177.104C58.072 176.837 58.3147 176.501 58.496 176.096C58.6773 175.691 58.768 175.219 58.768 174.68V167.48H60.208V174.8C60.208 175.691 60.0133 176.469 59.624 177.136C59.24 177.803 58.7067 178.32 58.024 178.688C57.3413 179.056 56.5547 179.24 55.664 179.24ZM65.6481 179V167.48H70.1361C70.8241 167.48 71.4108 167.621 71.8961 167.904C72.3868 168.187 72.7601 168.56 73.0161 169.024C73.2775 169.483 73.4081 169.979 73.4081 170.512C73.4081 171.136 73.2481 171.683 72.9281 172.152C72.6081 172.621 72.1761 172.944 71.6321 173.12L71.6161 172.728C72.3575 172.925 72.9335 173.288 73.3441 173.816C73.7548 174.344 73.9601 174.973 73.9601 175.704C73.9601 176.376 73.8215 176.957 73.5441 177.448C73.2721 177.939 72.8775 178.32 72.3601 178.592C71.8481 178.864 71.2401 179 70.5361 179H65.6481ZM67.0881 177.64H70.2641C70.6908 177.64 71.0721 177.563 71.4081 177.408C71.7441 177.248 72.0081 177.024 72.2001 176.736C72.3975 176.448 72.4961 176.101 72.4961 175.696C72.4961 175.307 72.4081 174.957 72.2321 174.648C72.0615 174.339 71.8188 174.093 71.5041 173.912C71.1948 173.725 70.8348 173.632 70.4241 173.632H67.0881V177.64ZM67.0881 172.288H70.1201C70.4615 172.288 70.7681 172.216 71.0401 172.072C71.3175 171.923 71.5361 171.715 71.6961 171.448C71.8615 171.181 71.9441 170.869 71.9441 170.512C71.9441 170.016 71.7761 169.611 71.4401 169.296C71.1041 168.981 70.6641 168.824 70.1201 168.824H67.0881V172.288ZM78.7544 179V167.48H86.0344V168.832H80.1784V172.44H85.0744V173.792H80.1784V177.648H86.0344V179H78.7544ZM90.8375 179V178.744L96.9255 168.832H91.0775V167.48H99.3255V167.752L93.2695 177.648H99.2455V179H90.8375ZM104.451 179V167.48H109.003C109.115 167.48 109.249 167.485 109.403 167.496C109.558 167.501 109.707 167.517 109.851 167.544C110.475 167.64 110.998 167.853 111.419 168.184C111.846 168.515 112.166 168.933 112.379 169.44C112.593 169.941 112.699 170.499 112.699 171.112C112.699 171.72 112.59 172.277 112.371 172.784C112.158 173.285 111.838 173.704 111.411 174.04C110.99 174.371 110.47 174.584 109.851 174.68C109.707 174.701 109.558 174.717 109.403 174.728C109.249 174.739 109.115 174.744 109.003 174.744H105.875V179H104.451ZM105.875 173.392H108.955C109.057 173.392 109.171 173.387 109.299 173.376C109.433 173.365 109.558 173.347 109.675 173.32C110.043 173.235 110.342 173.08 110.571 172.856C110.806 172.627 110.977 172.36 111.083 172.056C111.19 171.747 111.243 171.432 111.243 171.112C111.243 170.792 111.19 170.48 111.083 170.176C110.977 169.867 110.806 169.597 110.571 169.368C110.342 169.139 110.043 168.984 109.675 168.904C109.558 168.872 109.433 168.853 109.299 168.848C109.171 168.837 109.057 168.832 108.955 168.832H105.875V173.392ZM117.655 179V167.48H119.079V179H117.655ZM124.679 179V167.48H131.959V168.832H126.103V172.44H130.999V173.792H126.103V177.648H131.959V179H124.679ZM141.412 179.24C140.266 179.24 139.292 178.987 138.492 178.48C137.692 177.973 137.082 177.269 136.66 176.368C136.244 175.467 136.036 174.424 136.036 173.24C136.036 172.056 136.244 171.013 136.66 170.112C137.082 169.211 137.692 168.507 138.492 168C139.292 167.493 140.266 167.24 141.412 167.24C142.746 167.24 143.842 167.579 144.7 168.256C145.564 168.933 146.159 169.845 146.484 170.992L145.036 171.376C144.802 170.517 144.383 169.84 143.78 169.344C143.178 168.848 142.388 168.6 141.412 168.6C140.554 168.6 139.839 168.795 139.268 169.184C138.698 169.573 138.268 170.117 137.98 170.816C137.692 171.509 137.546 172.317 137.54 173.24C137.535 174.157 137.676 174.965 137.964 175.664C138.252 176.357 138.684 176.901 139.26 177.296C139.836 177.685 140.554 177.88 141.412 177.88C142.388 177.88 143.178 177.632 143.78 177.136C144.383 176.635 144.802 175.957 145.036 175.104L146.484 175.488C146.159 176.629 145.564 177.541 144.7 178.224C143.842 178.901 142.746 179.24 141.412 179.24ZM151.119 179V178.744L157.207 168.832H151.359V167.48H159.607V167.752L153.551 177.648H159.527V179H151.119ZM164.733 179V167.48H172.013V168.832H166.157V172.44H171.053V173.792H166.157V177.648H172.013V179H164.733ZM177.136 179V167.48H178.576L184.584 176.48V167.48H186.024V179H184.584L178.576 169.992V179H177.136ZM191.621 179V167.48H193.045V179H191.621ZM198.645 179V167.48H205.925V168.832H200.069V172.44H204.965V173.792H200.069V177.648H205.925V179H198.645Z" fill="white"/>
<path d="M53.08 231V199.32H59.152L72.924 220.44V199.32H78.996V231H72.924L59.152 209.88V231H53.08ZM85.5747 203.94V198.66H91.5587V203.94H85.5747ZM85.5747 231V207.24H91.5587V231H85.5747ZM109.198 231.66C106.764 231.66 104.615 231.139 102.752 230.098C100.904 229.042 99.4522 227.597 98.3962 225.764C97.3549 223.916 96.8342 221.804 96.8342 219.428C96.8342 216.832 97.3476 214.573 98.3742 212.652C99.4009 210.731 100.816 209.242 102.62 208.186C104.424 207.115 106.5 206.58 108.846 206.58C111.34 206.58 113.459 207.167 115.204 208.34C116.95 209.513 118.24 211.163 119.076 213.29C119.912 215.417 120.206 217.917 119.956 220.792H114.038V218.592C114.038 216.172 113.65 214.434 112.872 213.378C112.11 212.307 110.856 211.772 109.11 211.772C107.072 211.772 105.568 212.395 104.6 213.642C103.647 214.874 103.17 216.7 103.17 219.12C103.17 221.335 103.647 223.051 104.6 224.268C105.568 225.471 106.984 226.072 108.846 226.072C110.02 226.072 111.024 225.815 111.86 225.302C112.696 224.789 113.334 224.048 113.774 223.08L119.758 224.796C118.864 226.967 117.448 228.653 115.512 229.856C113.591 231.059 111.486 231.66 109.198 231.66ZM101.322 220.792V216.348H117.074V220.792H101.322ZM124.924 231V207.24H130.204V213.048L129.632 212.3C129.94 211.479 130.35 210.731 130.864 210.056C131.377 209.381 132.008 208.824 132.756 208.384C133.328 208.032 133.951 207.761 134.626 207.57C135.3 207.365 135.997 207.24 136.716 207.196C137.434 207.137 138.153 207.152 138.872 207.24V212.828C138.212 212.623 137.442 212.557 136.562 212.63C135.696 212.689 134.912 212.887 134.208 213.224C133.504 213.547 132.91 213.979 132.426 214.522C131.942 215.05 131.575 215.681 131.326 216.414C131.076 217.133 130.952 217.947 130.952 218.856V231H124.924ZM151.901 231.704C150.038 231.704 148.52 231.389 147.347 230.758C146.173 230.127 145.257 229.328 144.597 228.36C143.951 227.392 143.489 226.387 143.211 225.346C142.932 224.29 142.763 223.329 142.705 222.464C142.646 221.599 142.617 220.968 142.617 220.572V207.24H148.689V218.46C148.689 219.003 148.718 219.699 148.777 220.55C148.835 221.386 149.019 222.229 149.327 223.08C149.635 223.931 150.133 224.642 150.823 225.214C151.527 225.786 152.517 226.072 153.793 226.072C154.306 226.072 154.856 225.991 155.443 225.83C156.029 225.669 156.579 225.361 157.093 224.906C157.606 224.437 158.024 223.755 158.347 222.86C158.684 221.951 158.853 220.763 158.853 219.296L162.285 220.924C162.285 222.801 161.903 224.561 161.141 226.204C160.378 227.847 159.227 229.174 157.687 230.186C156.161 231.198 154.233 231.704 151.901 231.704ZM159.601 231V223.124H158.853V207.24H164.881V231H159.601ZM181.501 231.66C179.037 231.66 176.925 231.11 175.165 230.01C173.405 228.91 172.056 227.414 171.117 225.522C170.179 223.63 169.709 221.496 169.709 219.12C169.709 216.715 170.193 214.566 171.161 212.674C172.144 210.782 173.523 209.293 175.297 208.208C177.072 207.123 179.169 206.58 181.589 206.58C184.391 206.58 186.737 207.291 188.629 208.714C190.536 210.122 191.753 212.051 192.281 214.5L186.297 216.084C185.945 214.852 185.329 213.891 184.449 213.202C183.584 212.513 182.601 212.168 181.501 212.168C180.24 212.168 179.206 212.476 178.399 213.092C177.593 213.693 176.999 214.522 176.617 215.578C176.236 216.619 176.045 217.8 176.045 219.12C176.045 221.188 176.5 222.867 177.409 224.158C178.333 225.434 179.697 226.072 181.501 226.072C182.851 226.072 183.877 225.764 184.581 225.148C185.285 224.532 185.813 223.652 186.165 222.508L192.281 223.784C191.607 226.307 190.331 228.25 188.453 229.614C186.576 230.978 184.259 231.66 181.501 231.66ZM212.874 231V219.78C212.874 219.237 212.844 218.548 212.786 217.712C212.727 216.861 212.544 216.011 212.236 215.16C211.928 214.309 211.422 213.598 210.718 213.026C210.028 212.454 209.046 212.168 207.77 212.168C207.256 212.168 206.706 212.249 206.12 212.41C205.533 212.571 204.983 212.887 204.47 213.356C203.956 213.811 203.531 214.485 203.194 215.38C202.871 216.275 202.71 217.463 202.71 218.944L199.278 217.316C199.278 215.439 199.659 213.679 200.422 212.036C201.184 210.393 202.328 209.066 203.854 208.054C205.394 207.042 207.33 206.536 209.662 206.536C211.524 206.536 213.042 206.851 214.216 207.482C215.389 208.113 216.298 208.912 216.944 209.88C217.604 210.848 218.073 211.86 218.352 212.916C218.63 213.957 218.799 214.911 218.858 215.776C218.916 216.641 218.946 217.272 218.946 217.668V231H212.874ZM196.638 231V199.32H201.962V215.6H202.71V231H196.638ZM235.346 231.66C232.956 231.66 230.858 231.125 229.054 230.054C227.25 228.983 225.842 227.509 224.83 225.632C223.833 223.74 223.334 221.569 223.334 219.12C223.334 216.641 223.848 214.463 224.874 212.586C225.901 210.694 227.316 209.22 229.12 208.164C230.924 207.108 233 206.58 235.346 206.58C237.737 206.58 239.834 207.115 241.638 208.186C243.457 209.257 244.872 210.738 245.884 212.63C246.896 214.507 247.402 216.671 247.402 219.12C247.402 221.584 246.889 223.762 245.862 225.654C244.85 227.531 243.435 229.005 241.616 230.076C239.812 231.132 237.722 231.66 235.346 231.66ZM235.346 226.072C237.268 226.072 238.698 225.427 239.636 224.136C240.59 222.831 241.066 221.159 241.066 219.12C241.066 217.008 240.582 215.321 239.614 214.06C238.661 212.799 237.238 212.168 235.346 212.168C234.041 212.168 232.97 212.461 232.134 213.048C231.298 213.635 230.675 214.449 230.264 215.49C229.868 216.531 229.67 217.741 229.67 219.12C229.67 221.247 230.147 222.941 231.1 224.202C232.068 225.449 233.484 226.072 235.346 226.072ZM280.84 231V216.964C280.84 215.395 280.466 214.177 279.718 213.312C278.985 212.432 277.965 211.992 276.66 211.992C275.824 211.992 275.098 212.19 274.482 212.586C273.866 212.967 273.382 213.51 273.03 214.214C272.693 214.903 272.524 215.703 272.524 216.612L270.016 214.94C270.016 213.312 270.397 211.875 271.16 210.628C271.937 209.381 272.971 208.413 274.262 207.724C275.567 207.02 277.012 206.668 278.596 206.668C281.309 206.668 283.355 207.475 284.734 209.088C286.127 210.687 286.824 212.784 286.824 215.38V231H280.84ZM252.196 231V207.24H257.476V215.116H258.224V231H252.196ZM266.54 231V216.964C266.54 215.395 266.166 214.177 265.418 213.312C264.685 212.432 263.665 211.992 262.36 211.992C261.113 211.992 260.109 212.425 259.346 213.29C258.598 214.141 258.224 215.248 258.224 216.612L255.716 214.852C255.716 213.297 256.105 211.904 256.882 210.672C257.659 209.44 258.701 208.465 260.006 207.746C261.326 207.027 262.8 206.668 264.428 206.668C266.291 206.668 267.816 207.064 269.004 207.856C270.207 208.648 271.094 209.704 271.666 211.024C272.238 212.344 272.524 213.796 272.524 215.38V231H266.54ZM302.807 231.66C300.416 231.66 298.319 231.125 296.515 230.054C294.711 228.983 293.303 227.509 292.291 225.632C291.294 223.74 290.795 221.569 290.795 219.12C290.795 216.641 291.308 214.463 292.335 212.586C293.362 210.694 294.777 209.22 296.581 208.164C298.385 207.108 300.46 206.58 302.807 206.58C305.198 206.58 307.295 207.115 309.099 208.186C310.918 209.257 312.333 210.738 313.345 212.63C314.357 214.507 314.863 216.671 314.863 219.12C314.863 221.584 314.35 223.762 313.323 225.654C312.311 227.531 310.896 229.005 309.077 230.076C307.273 231.132 305.183 231.66 302.807 231.66ZM302.807 226.072C304.728 226.072 306.158 225.427 307.097 224.136C308.05 222.831 308.527 221.159 308.527 219.12C308.527 217.008 308.043 215.321 307.075 214.06C306.122 212.799 304.699 212.168 302.807 212.168C301.502 212.168 300.431 212.461 299.595 213.048C298.759 213.635 298.136 214.449 297.725 215.49C297.329 216.531 297.131 217.741 297.131 219.12C297.131 221.247 297.608 222.941 298.561 224.202C299.529 225.449 300.944 226.072 302.807 226.072ZM330.189 203.94H325.745L329.397 195.36H333.841L330.189 203.94ZM328.341 231.66C325.349 231.66 322.929 230.985 321.081 229.636C319.247 228.272 318.133 226.351 317.737 223.872L323.853 222.948C324.102 224.063 324.652 224.935 325.503 225.566C326.368 226.197 327.461 226.512 328.781 226.512C329.866 226.512 330.702 226.307 331.289 225.896C331.875 225.471 332.169 224.884 332.169 224.136C332.169 223.667 332.051 223.293 331.817 223.014C331.582 222.721 331.054 222.435 330.233 222.156C329.426 221.877 328.165 221.511 326.449 221.056C324.513 220.557 322.965 220 321.807 219.384C320.648 218.768 319.812 218.035 319.299 217.184C318.785 216.319 318.529 215.277 318.529 214.06C318.529 212.535 318.917 211.215 319.695 210.1C320.472 208.971 321.565 208.105 322.973 207.504C324.395 206.888 326.067 206.58 327.989 206.58C329.851 206.58 331.501 206.866 332.939 207.438C334.376 208.01 335.535 208.824 336.415 209.88C337.309 210.936 337.859 212.183 338.065 213.62L331.949 214.72C331.846 213.84 331.465 213.143 330.805 212.63C330.145 212.117 329.25 211.816 328.121 211.728C327.021 211.655 326.133 211.801 325.459 212.168C324.799 212.535 324.469 213.063 324.469 213.752C324.469 214.163 324.608 214.507 324.887 214.786C325.18 215.065 325.774 215.351 326.669 215.644C327.578 215.937 328.957 216.319 330.805 216.788C332.609 217.257 334.053 217.807 335.139 218.438C336.239 219.054 337.038 219.802 337.537 220.682C338.035 221.547 338.285 222.596 338.285 223.828C338.285 226.263 337.405 228.177 335.645 229.57C333.885 230.963 331.45 231.66 328.341 231.66ZM353.591 231.66C351.127 231.66 349.015 231.11 347.255 230.01C345.495 228.91 344.146 227.414 343.207 225.522C342.268 223.63 341.799 221.496 341.799 219.12C341.799 216.715 342.283 214.566 343.251 212.674C344.234 210.782 345.612 209.293 347.387 208.208C349.162 207.123 351.259 206.58 353.679 206.58C356.48 206.58 358.827 207.291 360.719 208.714C362.626 210.122 363.843 212.051 364.371 214.5L358.387 216.084C358.035 214.852 357.419 213.891 356.539 213.202C355.674 212.513 354.691 212.168 353.591 212.168C352.33 212.168 351.296 212.476 350.489 213.092C349.682 213.693 349.088 214.522 348.707 215.578C348.326 216.619 348.135 217.8 348.135 219.12C348.135 221.188 348.59 222.867 349.499 224.158C350.423 225.434 351.787 226.072 353.591 226.072C354.94 226.072 355.967 225.764 356.671 225.148C357.375 224.532 357.903 223.652 358.255 222.508L364.371 223.784C363.696 226.307 362.42 228.25 360.543 229.614C358.666 230.978 356.348 231.66 353.591 231.66ZM368.567 203.94V198.66H374.551V203.94H368.567ZM368.567 231V207.24H374.551V231H368.567Z" fill="white"/>
<rect width="54" height="54" rx="27" transform="matrix(-1 0 0 1 105 38)" fill="url(#paint1_linear_30_596)"/>
<path d="M85 65H71M71 65L78 58M71 65L78 72" stroke="white" stroke-width="2" stroke-linecap="round" stroke-linejoin="round"/>
<defs>
<radialGradient id="paint0_radial_30_596" cx="0" cy="0" r="1" gradientUnits="userSpaceOnUse" gradientTransform="translate(782.885 76.5146) rotate(141.551) scale(324.524 628.275)">
<stop stop-color="#F2B163"/>
<stop offset="1" stop-color="#E06933"/>
</radialGradient>
<linearGradient id="paint1_linear_30_596" x1="27" y1="0" x2="27" y2="54" gradientUnits="userSpaceOnUse">
<stop stop-color="#F1AB60"/>
<stop offset="1" stop-color="#E06A34"/>
</linearGradient>
</defs>
</svg>