<svg width="54" height="54" viewBox="0 0 54 54" fill="none" xmlns="http://www.w3.org/2000/svg">
<rect width="54" height="54" rx="27" fill="url(#paint0_linear_39_1193)"/>
<path d="M36.9999 31.9201V34.9201C37.0011 35.1986 36.944 35.4743 36.8324 35.7294C36.7209 35.9846 36.5572 36.2137 36.352 36.402C36.1468 36.5902 35.9045 36.7336 35.6407 36.8228C35.3769 36.912 35.0973 36.9452 34.8199 36.9201C31.7428 36.5857 28.7869 35.5342 26.1899 33.8501C23.7738 32.3148 21.7253 30.2663 20.1899 27.8501C18.4999 25.2413 17.4482 22.2711 17.1199 19.1801C17.0949 18.9036 17.1278 18.6249 17.2164 18.3617C17.3051 18.0986 17.4475 17.8568 17.6347 17.6517C17.8219 17.4466 18.0497 17.2828 18.3037 17.1706C18.5577 17.0584 18.8323 17.0004 19.1099 17.0001H22.1099C22.5952 16.9953 23.0657 17.1672 23.4337 17.4836C23.8017 17.8001 24.042 18.2395 24.1099 18.7201C24.2366 19.6802 24.4714 20.6228 24.8099 21.5301C24.9445 21.888 24.9736 22.277 24.8938 22.651C24.8141 23.0249 24.6288 23.3682 24.3599 23.6401L23.0899 24.9101C24.5135 27.4136 26.5864 29.4865 29.0899 30.9101L30.3599 29.6401C30.6318 29.3712 30.9751 29.1859 31.3491 29.1062C31.723 29.0264 32.112 29.0556 32.4699 29.1901C33.3772 29.5286 34.3199 29.7635 35.2799 29.8901C35.7657 29.9586 36.2093 30.2033 36.5265 30.5776C36.8436 30.9519 37.0121 31.4297 36.9999 31.9201Z" stroke="white" stroke-width="2" stroke-linecap="round" stroke-linejoin="round"/>
<defs>
<linearGradient id="paint0_linear_39_1193" x1="27" y1="0" x2="27" y2="54" gradientUnits="userSpaceOnUse">
<stop stop-color="#F1AB60"/>
<stop offset="1" stop-color="#E06A34"/>
</linearGradient>
</defs>
</svg>
